<svg width="78" height="78" viewBox="0 0 78 78" fill="none" xmlns="http://www.w3.org/2000/svg">
<path d="M77.8905 43.4157C77.8903 43.4153 77.8903 43.4151 77.8901 43.4147L63.1634 6.4372C62.8509 5.65153 61.9603 5.26797 61.1747 5.58052C61.1741 5.58071 61.1735 5.5809 61.1729 5.58128L1.42857 29.3709C1.18493 29.4762 0.973627 29.6442 0.816109 29.8578C0.319247 30.116 0.00535906 30.6271 0 31.1869V70.9971C0 71.8426 0.685577 72.5282 1.53116 72.5282H65.8399C66.6855 72.5282 67.3711 71.8426 67.3711 70.9971V49.2546L77.0358 45.4052C77.8212 45.0919 78.2038 44.2012 77.8905 43.4157ZM64.3087 69.4659H3.06232V32.718H64.3087V69.4659ZM25.5474 29.6634L51.1852 19.4475C53.4733 21.8525 56.6438 23.2195 59.9633 23.2325L62.5204 29.6634H25.5474ZM67.3711 45.9656V31.1869C67.3711 30.3413 66.6855 29.6557 65.8399 29.6557H65.8154L62.5709 21.5069C62.5349 21.4389 62.493 21.3742 62.4453 21.314C62.2811 20.5765 61.5982 20.0733 60.8453 20.135C57.7565 20.4165 54.735 19.1154 52.8174 16.6776C52.3402 16.0887 51.5015 15.9423 50.8529 16.3346C50.7802 16.3432 50.708 16.3566 50.637 16.3744L19.337 28.8381C18.9583 28.9866 18.6553 29.2812 18.4964 29.6557H8.99098L60.8851 8.99271L74.4803 43.1299L67.3711 45.9656Z" fill="#665DEC"/>
<path d="M7.218 59.1291C10.1908 60.0078 12.517 62.3311 13.3993 65.3027C13.5928 65.9513 14.1894 66.3958 14.8662 66.396C14.9456 66.391 15.0244 66.3791 15.102 66.3607C15.1707 66.3803 15.2409 66.3946 15.3117 66.4036H52.0596C52.1227 66.3954 52.1851 66.3826 52.2464 66.3653C53.0114 66.5514 53.7823 66.0823 53.9686 65.3172C53.9691 65.3144 53.9699 65.3117 53.9705 65.3088C54.8505 62.3342 57.1771 60.0076 60.1518 59.1275C60.8731 58.907 61.3214 58.1882 61.2021 57.4433C61.2226 57.369 61.2374 57.2932 61.2465 57.2166V44.9674C61.2375 44.8906 61.2222 44.8148 61.2006 44.7407C61.3206 43.9956 60.8722 43.2764 60.1502 43.0565C57.1756 42.1766 54.8495 39.8491 53.972 36.8736C53.7504 36.1473 53.0244 35.6979 52.2755 35.8233C52.2047 35.8036 52.1325 35.7892 52.0596 35.7804H15.3117C15.2346 35.7896 15.1582 35.8049 15.0836 35.8263C14.3389 35.7077 13.6204 36.1557 13.3993 36.8767C12.5187 39.8508 10.1923 42.1766 7.218 43.0565C6.49664 43.277 6.04839 43.9958 6.16763 44.7407C6.14772 44.8152 6.13337 44.8908 6.12476 44.9674V57.2166C6.13356 57.2886 6.14791 57.3598 6.16763 57.4295C6.04207 58.1792 6.49128 58.9061 7.218 59.1291ZM9.18708 45.589C12.2616 44.3541 14.6985 41.9173 15.9334 38.8427H51.4364C52.6718 41.9173 55.1093 44.3541 58.1842 45.589V56.595C55.1106 57.8312 52.6741 60.2677 51.4379 63.3413H15.9334C14.6972 60.2677 12.2607 57.8312 9.18708 56.595V45.589Z" fill="#665DEC"/>
<path d="M33.6855 60.279C38.7594 60.279 42.8725 56.1659 42.8725 51.092C42.8725 46.0181 38.7594 41.905 33.6855 41.905C28.6116 41.905 24.4985 46.0181 24.4985 51.092C24.5035 56.1638 28.6137 60.274 33.6855 60.279ZM33.6855 44.9674C37.068 44.9674 39.8101 47.7095 39.8101 51.092C39.8101 54.4745 37.068 57.2166 33.6855 57.2166C30.303 57.2166 27.5609 54.4745 27.5609 51.092C27.5609 47.7095 30.303 44.9674 33.6855 44.9674Z" fill="#665DEC"/>
<path d="M16.8429 53.3888C18.1113 53.3888 19.1396 52.3604 19.1396 51.092C19.1396 49.8237 18.1113 48.7953 16.8429 48.7953C15.5745 48.7953 14.5461 49.8237 14.5461 51.092C14.5461 52.3606 15.5745 53.3888 16.8429 53.3888ZM16.8429 50.3264C17.2657 50.3264 17.6085 50.6692 17.6085 51.092C17.6085 51.5148 17.2657 51.8576 16.8429 51.8576C16.4201 51.8576 16.0773 51.5148 16.0773 51.092C16.0773 50.6692 16.4201 50.3264 16.8429 50.3264Z" fill="#665DEC"/>
<path d="M50.5282 53.3888C51.7966 53.3888 52.8249 52.3604 52.8249 51.092C52.8249 49.8237 51.7966 48.7953 50.5282 48.7953C49.2598 48.7953 48.2314 49.8237 48.2314 51.092C48.2314 52.3606 49.2598 53.3888 50.5282 53.3888ZM50.5282 50.3264C50.951 50.3264 51.2938 50.6692 51.2938 51.092C51.2938 51.5148 50.951 51.8576 50.5282 51.8576C50.1054 51.8576 49.7626 51.5148 49.7626 51.092C49.7626 50.6692 50.1054 50.3264 50.5282 50.3264Z" fill="#665DEC"/>
</svg>
