<svg width="73" height="73" viewBox="0 0 73 73" fill="none" xmlns="http://www.w3.org/2000/svg">
<path d="M17.8466 6.53149L17.8463 6.53095C17.601 6.11854 17.7374 5.58205 18.1566 5.33476L18.1566 5.33474C23.6904 2.06893 30.0323 0.342893 36.5 0.342893C56.4367 0.342893 72.6571 16.5633 72.6571 36.5C72.6571 56.4367 56.4367 72.6571 36.5 72.6571C16.5633 72.6571 0.342893 56.4367 0.342893 36.5C0.342893 27.7114 3.53181 19.2414 9.32614 12.649C9.64571 12.2878 10.1985 12.2539 10.5609 12.5705C10.9216 12.888 10.9571 13.4425 10.6412 13.8044C5.12575 20.0745 2.09044 28.1363 2.09044 36.5C2.09044 55.4747 17.5253 70.9096 36.5 70.9096C55.4747 70.9096 70.9096 55.4747 70.9096 36.5C70.9096 17.5253 55.4747 2.09044 36.5 2.09044C30.3464 2.09044 24.3102 3.73195 19.0425 6.84121C18.6312 7.08044 18.0921 6.94583 17.8466 6.53149Z" fill="#665DEC" stroke="#665DEC" stroke-width="0.685786"/>
<path d="M36.4994 66.2537C19.9158 66.2537 6.42566 52.7636 6.42566 36.18C6.42566 19.5964 19.9158 6.1062 36.4994 6.1062C53.083 6.1062 66.5732 19.5964 66.5732 36.18C66.5732 52.7636 53.083 66.2537 36.4994 66.2537ZM36.4994 7.85375C20.8803 7.85375 8.1732 20.5608 8.1732 36.18C8.1732 51.7991 20.8803 64.5062 36.4994 64.5062C52.1186 64.5062 64.8256 51.7991 64.8256 36.18C64.8256 20.5608 52.1186 7.85375 36.4994 7.85375Z" fill="#665DEC" stroke="#665DEC" stroke-width="0.685786"/>
<path d="M47.4347 15.9689L47.4408 15.9634L47.4465 15.9576C47.7791 15.6251 48.3615 15.6358 48.6578 15.9503L48.6681 15.9612L48.6793 15.9712C48.8417 16.1159 48.9295 16.3336 48.9295 16.5668C48.9295 16.8003 48.8415 17.0186 48.6805 17.1636L48.667 17.1757L48.655 17.1891C48.5089 17.3514 48.2897 17.4406 48.0582 17.4406C47.8256 17.4406 47.5984 17.3501 47.4459 17.1998C47.2703 17.0238 47.1844 16.7963 47.1844 16.5668C47.1844 16.3351 47.2738 16.1152 47.4347 15.9689ZM25.55 55.9853L25.5519 55.9872C25.7299 56.1633 25.8153 56.3883 25.8153 56.6171C25.8153 56.8143 25.7326 57.0441 25.5716 57.229C25.3834 57.3949 25.1521 57.4908 24.9415 57.4908C24.7265 57.4908 24.4945 57.3888 24.329 57.2279C24.1503 57.0463 24.0677 56.8199 24.0677 56.6171C24.0677 56.3909 24.154 56.1607 24.3108 55.9835C24.4685 55.8382 24.6976 55.7561 24.9385 55.7561C25.1843 55.7561 25.4069 55.8413 25.55 55.9853ZM55.9159 25.6673L55.9145 25.6659C55.7368 25.4882 55.65 25.2621 55.65 25.0348C55.65 24.804 55.7417 24.5762 55.8933 24.4225C56.2422 24.0744 56.8235 24.0976 57.1302 24.4179L57.1302 24.4179L57.134 24.4218C57.296 24.5856 57.3975 24.8176 57.3975 25.0348C57.3975 25.2666 57.3081 25.4864 57.1472 25.6328L57.1345 25.6443L57.123 25.6571C56.9773 25.8189 56.7561 25.9086 56.5237 25.9086C56.2905 25.9086 56.0647 25.8178 55.9159 25.6673ZM59.016 37.214L59.0051 37.202L58.9931 37.1911C58.8321 37.0448 58.7427 36.8249 58.7427 36.5932C58.7427 36.3618 58.8319 36.1409 58.9944 35.9915L59.0025 35.9841L59.01 35.9762C59.3125 35.6604 59.8961 35.6513 60.2266 35.9605C60.4044 36.14 60.4903 36.3671 60.4903 36.5932C60.4903 36.8264 60.3995 37.0522 60.2489 37.201L60.2464 37.2036C60.0723 37.3794 59.8448 37.4669 59.6165 37.4669C59.3853 37.4669 59.1652 37.378 59.016 37.214ZM12.7827 37.214L12.7717 37.202L12.7597 37.1911C12.5988 37.0448 12.5094 36.8249 12.5094 36.5932C12.5094 36.3618 12.5986 36.1409 12.7611 35.9915L12.7692 35.9841L12.7767 35.9762C13.0792 35.6604 13.6628 35.6513 13.9933 35.9606C14.171 36.1401 14.2569 36.3671 14.2569 36.5932C14.2569 36.8264 14.1661 37.0522 14.0156 37.201L14.0156 37.201L14.0131 37.2036C13.839 37.3794 13.6114 37.4669 13.3832 37.4669C13.152 37.4669 12.9319 37.378 12.7827 37.214ZM16.4735 49.0253C16.2549 49.0253 16.0472 48.9443 15.8635 48.7812C15.6791 48.5773 15.5997 48.3474 15.5997 48.1515C15.5997 47.9339 15.6799 47.7264 15.843 47.5401C16.2473 47.1853 16.7831 47.2182 17.1094 47.5398C17.2595 47.6923 17.3497 47.9192 17.3497 48.1515C17.3497 48.3845 17.259 48.6108 17.1101 48.7601C16.9273 48.9408 16.7217 49.0253 16.4735 49.0253Z" fill="#665DEC" stroke="#665DEC" stroke-width="0.685786"/>
<path d="M57.1299 47.4006L57.1299 47.4006L57.1338 47.4045C57.2958 47.5683 57.3973 47.8003 57.3973 48.0175C57.3973 48.2493 57.3079 48.4691 57.1469 48.6154L57.1342 48.627L57.1227 48.6398C56.9771 48.8016 56.7558 48.8913 56.5235 48.8913C56.2986 48.8913 56.0703 48.8061 55.894 48.6495C55.7357 48.4679 55.6497 48.24 55.6497 48.0175C55.6497 47.7868 55.7414 47.559 55.8929 47.4053C56.2418 47.0571 56.8232 47.0803 57.1299 47.4006ZM16.4733 25.7746C16.2547 25.7746 16.047 25.6937 15.8632 25.5306C15.6789 25.3267 15.5995 25.0968 15.5995 24.9008C15.5995 24.6833 15.6797 24.4757 15.8428 24.2894C16.2471 23.9347 16.7828 23.9676 17.1092 24.2891C17.2592 24.4416 17.3495 24.6685 17.3495 24.9008C17.3495 25.1339 17.2587 25.3602 17.1098 25.5094C16.9298 25.6874 16.6986 25.7746 16.4733 25.7746Z" fill="#665DEC" stroke="#665DEC" stroke-width="0.685786"/>
<path d="M24.3401 17.1919L24.3303 17.1812L24.3197 17.1715C24.1574 17.0223 24.068 16.7991 24.068 16.5698C24.068 16.3401 24.1576 16.118 24.3183 15.9719L24.3274 15.9636L24.3359 15.9547C24.6386 15.637 25.222 15.6282 25.5521 15.9399C25.7285 16.1157 25.8131 16.3396 25.8131 16.5674C25.8131 16.8016 25.7246 17.0221 25.564 17.1666L25.5573 17.1726L25.551 17.179C25.3685 17.3614 25.1624 17.4436 24.9418 17.4436C24.7104 17.4436 24.4895 17.3544 24.3401 17.1919ZM48.0584 57.4938C47.8286 57.4938 47.6041 57.4055 47.4517 57.2583C47.2628 57.0478 47.1847 56.838 47.1847 56.62C47.1847 56.3939 47.2709 56.1637 47.4277 55.9865C47.7786 55.6627 48.3427 55.68 48.6709 55.9922C48.8474 56.1681 48.9322 56.3921 48.9322 56.62C48.9322 56.8196 48.8476 57.0526 48.6827 57.2386C48.5105 57.4094 48.286 57.4938 48.0584 57.4938Z" fill="#665DEC" stroke="#665DEC" stroke-width="0.685786"/>
<path d="M37.1032 58.9907L37.1117 58.9995L37.1208 59.0078C37.2847 59.157 37.3736 59.3771 37.3736 59.6083C37.3736 59.8399 37.2845 60.059 37.1222 60.2051L37.1087 60.2172L37.0967 60.2306C36.9506 60.3929 36.7314 60.4821 36.4999 60.4821C36.2821 60.4821 36.0745 60.4017 35.888 60.2384C35.7042 60.0312 35.6261 59.823 35.6261 59.6083C35.6261 59.3773 35.7153 59.1517 35.8638 58.9992C36.2451 58.642 36.8037 58.6762 37.1032 58.9907ZM37.1032 12.7573L37.1117 12.7662L37.1208 12.7745C37.2847 12.9236 37.3736 13.1438 37.3736 13.375C37.3736 13.6082 37.2828 13.834 37.1323 13.9828L37.1323 13.9828L37.1298 13.9854C36.9557 14.1612 36.7281 14.2487 36.4999 14.2487C36.2798 14.2487 36.07 14.1667 35.8821 13.9998C35.7117 13.8262 35.6261 13.6007 35.6261 13.375C35.6261 13.1214 35.7127 12.9206 35.8638 12.7659C36.245 12.4087 36.8037 12.4428 37.1032 12.7573Z" fill="#665DEC" stroke="#665DEC" stroke-width="0.685786"/>
<path d="M51.7432 27.9326L51.7439 27.9332C52.0857 28.2733 52.0866 28.8247 51.7432 29.168L38.9485 41.9627C38.6835 41.4237 38.2522 40.9923 37.7131 40.7273L50.5078 27.9326C50.8484 27.592 51.4026 27.592 51.7432 27.9326ZM20.7718 26.2122L35.2868 40.7273C34.7478 40.9923 34.3164 41.4237 34.0514 41.9627L19.5363 27.4477C19.1957 27.1071 19.1957 26.5528 19.5363 26.2122C19.8769 25.8716 20.4312 25.8716 20.7718 26.2122Z" fill="#665DEC" stroke="#665DEC" stroke-width="0.685786"/>
<path d="M36.4996 46.4831C34.6766 46.4831 33.1925 44.999 33.1925 43.176C33.1925 41.353 34.6766 39.8689 36.4996 39.8689C38.3226 39.8689 39.8067 41.353 39.8067 43.176C39.8067 44.999 38.3226 46.4831 36.4996 46.4831ZM36.4996 41.6164C35.6411 41.6164 34.9401 42.3175 34.9401 43.176C34.9401 44.0345 35.6411 44.7356 36.4996 44.7356C37.3582 44.7356 38.0592 44.0345 38.0592 43.176C38.0592 42.3175 37.3582 41.6164 36.4996 41.6164Z" fill="#665DEC" stroke="#665DEC" stroke-width="0.685786"/>
<path d="M15.4742 36.4359C15.4742 36.9157 15.0802 37.3097 14.6005 37.3097C14.1207 37.3097 13.7267 36.9157 13.7267 36.4359C13.7267 35.9561 14.1207 35.5621 14.6005 35.5621C15.0802 35.5621 15.4742 35.9561 15.4742 36.4359Z" fill="#665DEC" stroke="#665DEC" stroke-width="0.685786"/>
</svg>
