<svg width="77" height="77" viewBox="0 0 77 77" fill="none" xmlns="http://www.w3.org/2000/svg">
<mask id="path-1-inside-1_57_2403" fill="white">
<path d="M75.008 45.7677H67.5873L60.7132 43.4793L58.4808 37.8956V33.6901C58.4764 32.2856 57.9544 30.9319 57.0145 29.8882C56.0747 28.8444 54.783 28.1838 53.3866 28.0327C53.3866 27.8586 53.3955 27.6844 53.3955 27.5102V8.89934C53.3955 8.62583 53.3073 8.35962 53.144 8.14021C52.9807 7.9208 52.751 7.75991 52.4891 7.68141L27.0626 0.0534838C26.8246 -0.0178279 26.5709 -0.0178279 26.3329 0.0534838L0.906452 7.68141C0.644454 7.75991 0.414756 7.9208 0.251461 8.14021C0.0881655 8.35962 -1.89828e-05 8.62583 3.06507e-09 8.89934V27.5102C3.06507e-09 28.1001 0.0394111 28.6824 0.0610236 29.2685C0.0928066 30.1266 0.141117 30.9797 0.217396 31.8276C0.230109 31.9726 0.247908 32.1086 0.261892 32.251C1.02972 40.191 3.80757 47.8045 8.33339 54.3733C12.8592 60.9422 18.9838 66.2499 26.1295 69.7956C26.3059 69.8838 26.5005 69.9297 26.6978 69.9297C26.895 69.9297 27.0896 69.8838 27.266 69.7956C29.168 68.841 31.0037 67.7596 32.7607 66.5589C33.1598 67.1086 33.6641 67.5735 34.2443 67.9268C33.6226 68.6684 33.2253 69.5719 33.0992 70.5314C32.9731 71.4909 33.1233 72.4664 33.5324 73.3434C33.9414 74.2205 34.5922 74.9626 35.4083 75.4827C36.2244 76.0027 37.1719 76.2791 38.1396 76.2794H59.7521C60.0032 76.279 60.2486 76.2047 60.4577 76.0658L67.7614 71.1941H75.008C75.3451 71.1941 75.6685 71.0602 75.9069 70.8217C76.1453 70.5833 76.2793 70.2599 76.2793 69.9228V47.039C76.2793 46.7018 76.1453 46.3784 75.9069 46.14C75.6685 45.9016 75.3451 45.7677 75.008 45.7677ZM47.4928 39.5217L48.9751 43.225H41.5887C44.2882 38.3821 45.7225 32.9364 45.7587 27.392L50.8529 25.8639V27.5102C50.8529 27.7823 50.844 28.0531 50.8389 28.3251C49.73 28.719 48.7698 29.4458 48.0897 30.4061C47.4095 31.3664 47.0425 32.5133 47.0389 33.6901V37.1595C47.0382 37.9687 47.1922 38.7704 47.4928 39.5217ZM29.2404 48.3103C29.2418 49.6091 29.7425 50.8576 30.6388 51.7975C30.1672 52.1408 29.7044 52.4968 29.2175 52.8146L26.6978 54.4266L24.1831 52.8108C18.5457 49.1971 14.2594 43.823 11.9898 37.5231L43.1881 28.1637C43.0145 33.4976 41.4404 38.692 38.624 43.225H34.3257C32.977 43.225 31.6835 43.7608 30.7298 44.7145C29.7762 45.6681 29.2404 46.9616 29.2404 48.3103ZM3.23297 35.2627C3.2228 35.1992 3.21136 35.1356 3.20119 35.0746L8.25342 33.563C8.40343 34.3258 8.58523 35.0886 8.78865 35.8336L3.66395 37.3719C3.49613 36.6421 3.35756 35.9467 3.23297 35.2627ZM2.64689 30.1558L7.67497 28.6468C7.71056 29.4439 7.76905 30.2359 7.86058 31.0216L2.84395 32.5268C2.83123 32.4124 2.82106 32.2993 2.80835 32.1849C2.74351 31.5289 2.68503 30.864 2.64689 30.1558ZM43.2249 15.3271L10.1706 25.2434V16.1522L26.741 10.2342L43.2249 14.9432V15.3271ZM43.2249 17.9817V20.4124L10.3435 30.2766C10.2638 29.4867 10.2138 28.6917 10.1935 27.8916L43.2249 17.9817ZM50.8529 20.7786V23.2093L45.7676 24.7349V22.3042L50.8529 20.7786ZM50.8529 18.124L45.7676 19.6496V17.2189L50.8529 15.6933V18.124ZM10.6994 32.8243L31.3864 26.619L43.2249 23.0669V25.4977L11.2232 35.0987C11.0224 34.3487 10.8431 33.5922 10.6994 32.8243ZM2.54264 9.8452L26.6978 2.59867L50.8529 9.8452V13.0388L45.7676 14.5643V13.9846C45.7675 13.7085 45.6774 13.4399 45.5112 13.2195C45.3449 12.9991 45.1113 12.8388 44.8459 12.7629L27.0474 7.6776C26.7924 7.60342 26.5205 7.61188 26.2706 7.70175L8.47209 14.0584C8.22502 14.1465 8.01126 14.3089 7.86013 14.5233C7.709 14.7377 7.62789 14.9936 7.62793 15.2559V26.0062L2.54264 27.5318V9.8452ZM26.6978 67.225C21.2803 64.4422 16.4926 60.5756 12.6317 55.8654C8.77087 51.1551 5.91925 45.7016 4.25384 39.8433L9.55144 38.2542C11.9959 45.1355 16.6593 51.0086 22.8075 54.9491L26.01 57.0074C26.2151 57.1394 26.4538 57.2095 26.6978 57.2095C26.9417 57.2095 27.1804 57.1394 27.3855 57.0074L30.588 54.9491L30.6211 54.9275C30.4028 55.9562 30.5127 57.0274 30.9353 57.9903C31.3579 58.9532 32.0719 59.7593 32.9768 60.2951C32.2052 61.2103 31.7823 62.3691 31.783 63.5662C31.7852 63.743 31.7971 63.9195 31.8186 64.095C30.1836 65.2517 28.4728 66.2974 26.6978 67.225ZM59.3707 73.7367H38.1396C37.4653 73.7367 36.8186 73.4689 36.3417 72.992C35.8649 72.5152 35.597 71.8684 35.597 71.1941C35.5959 70.5577 35.8357 69.9446 36.2683 69.4778C36.7008 69.0111 37.294 68.7254 37.9286 68.6781C38.2577 68.6441 38.5614 68.4857 38.7777 68.2352C38.9939 67.9847 39.1063 67.6611 39.0919 67.3305C39.079 67.002 38.9395 66.6913 38.7024 66.4635C38.4654 66.2357 38.1493 66.1086 37.8205 66.1088H36.8683C36.194 66.1088 35.5472 65.8409 35.0704 65.3641C34.5936 64.8872 34.3257 64.2405 34.3257 63.5662C34.3257 62.8918 34.5936 62.2451 35.0704 61.7682C35.5472 61.2914 36.194 61.0235 36.8683 61.0235C37.2055 61.0235 37.5289 60.8896 37.7673 60.6512C38.0057 60.4127 38.1396 60.0894 38.1396 59.7522C38.1396 59.415 38.0057 59.0917 37.7673 58.8532C37.5289 58.6148 37.2055 58.4809 36.8683 58.4809H35.597C34.9227 58.4809 34.2759 58.213 33.7991 57.7362C33.3222 57.2593 33.0544 56.6126 33.0544 55.9382C33.0544 55.2639 33.3222 54.6171 33.7991 54.1403C34.2759 53.6635 34.9227 53.3956 35.597 53.3956C35.9342 53.3956 36.2575 53.2617 36.496 53.0232C36.7344 52.7848 36.8683 52.4614 36.8683 52.1243C36.8683 51.7871 36.7344 51.4637 36.496 51.2253C36.2575 50.9869 35.9342 50.8529 35.597 50.8529H34.3257C33.6513 50.8529 33.0046 50.5851 32.5278 50.1082C32.0509 49.6314 31.783 48.9847 31.783 48.3103C31.783 47.636 32.0509 46.9892 32.5278 46.5124C33.0046 46.0355 33.6513 45.7677 34.3257 45.7677H50.8529C51.0608 45.7678 51.2655 45.717 51.4492 45.6196C51.6329 45.5222 51.79 45.3813 51.9065 45.2091C52.0231 45.037 52.0957 44.8389 52.1179 44.6321C52.1401 44.4254 52.1113 44.2164 52.0339 44.0234L49.8549 38.5771C49.6737 38.1265 49.5809 37.6452 49.5815 37.1595V33.6901C49.5815 32.8472 49.9164 32.0388 50.5124 31.4427C51.1085 30.8467 51.9169 30.5118 52.7598 30.5118C53.6028 30.5118 54.4112 30.8467 55.0072 31.4427C55.6033 32.0388 55.9381 32.8472 55.9381 33.6901V38.1397C55.9382 38.3017 55.9688 38.4621 56.0284 38.6127L58.5711 44.9693C58.6403 45.1406 58.7458 45.2949 58.8803 45.4215C59.0148 45.5481 59.1752 45.6441 59.3504 45.7028L66.1087 47.9556V69.2426L59.3707 73.7367ZM73.7366 68.6515H68.6514V48.3103H73.7366V68.6515ZM66.8969 16.3239L65.159 18.18C65.7394 18.7232 66.285 19.3024 66.7927 19.9141L68.748 18.288C68.1725 17.5954 67.5543 16.9394 66.8969 16.3239ZM73.7366 32.0997C73.7366 31.6013 73.7197 31.1076 73.6858 30.6186L71.1495 30.7902C71.1783 31.2225 71.1932 31.659 71.194 32.0997C71.194 32.4595 71.1838 32.818 71.1635 33.1727L73.7061 33.3189C73.7265 32.9146 73.7366 32.5082 73.7366 32.0997ZM64.8183 14.6063C64.0893 14.0764 63.328 13.5923 62.5388 13.157L61.312 15.3831C62.0078 15.7647 62.679 16.1893 63.322 16.6544L64.8183 14.6063Z"/>
</mask>
<path d="M75.008 45.7677H67.5873L60.7132 43.4793L58.4808 37.8956V33.6901C58.4764 32.2856 57.9544 30.9319 57.0145 29.8882C56.0747 28.8444 54.783 28.1838 53.3866 28.0327C53.3866 27.8586 53.3955 27.6844 53.3955 27.5102V8.89934C53.3955 8.62583 53.3073 8.35962 53.144 8.14021C52.9807 7.9208 52.751 7.75991 52.4891 7.68141L27.0626 0.0534838C26.8246 -0.0178279 26.5709 -0.0178279 26.3329 0.0534838L0.906452 7.68141C0.644454 7.75991 0.414756 7.9208 0.251461 8.14021C0.0881655 8.35962 -1.89828e-05 8.62583 3.06507e-09 8.89934V27.5102C3.06507e-09 28.1001 0.0394111 28.6824 0.0610236 29.2685C0.0928066 30.1266 0.141117 30.9797 0.217396 31.8276C0.230109 31.9726 0.247908 32.1086 0.261892 32.251C1.02972 40.191 3.80757 47.8045 8.33339 54.3733C12.8592 60.9422 18.9838 66.2499 26.1295 69.7956C26.3059 69.8838 26.5005 69.9297 26.6978 69.9297C26.895 69.9297 27.0896 69.8838 27.266 69.7956C29.168 68.841 31.0037 67.7596 32.7607 66.5589C33.1598 67.1086 33.6641 67.5735 34.2443 67.9268C33.6226 68.6684 33.2253 69.5719 33.0992 70.5314C32.9731 71.4909 33.1233 72.4664 33.5324 73.3434C33.9414 74.2205 34.5922 74.9626 35.4083 75.4827C36.2244 76.0027 37.1719 76.2791 38.1396 76.2794H59.7521C60.0032 76.279 60.2486 76.2047 60.4577 76.0658L67.7614 71.1941H75.008C75.3451 71.1941 75.6685 71.0602 75.9069 70.8217C76.1453 70.5833 76.2793 70.2599 76.2793 69.9228V47.039C76.2793 46.7018 76.1453 46.3784 75.9069 46.14C75.6685 45.9016 75.3451 45.7677 75.008 45.7677ZM47.4928 39.5217L48.9751 43.225H41.5887C44.2882 38.3821 45.7225 32.9364 45.7587 27.392L50.8529 25.8639V27.5102C50.8529 27.7823 50.844 28.0531 50.8389 28.3251C49.73 28.719 48.7698 29.4458 48.0897 30.4061C47.4095 31.3664 47.0425 32.5133 47.0389 33.6901V37.1595C47.0382 37.9687 47.1922 38.7704 47.4928 39.5217ZM29.2404 48.3103C29.2418 49.6091 29.7425 50.8576 30.6388 51.7975C30.1672 52.1408 29.7044 52.4968 29.2175 52.8146L26.6978 54.4266L24.1831 52.8108C18.5457 49.1971 14.2594 43.823 11.9898 37.5231L43.1881 28.1637C43.0145 33.4976 41.4404 38.692 38.624 43.225H34.3257C32.977 43.225 31.6835 43.7608 30.7298 44.7145C29.7762 45.6681 29.2404 46.9616 29.2404 48.3103ZM3.23297 35.2627C3.2228 35.1992 3.21136 35.1356 3.20119 35.0746L8.25342 33.563C8.40343 34.3258 8.58523 35.0886 8.78865 35.8336L3.66395 37.3719C3.49613 36.6421 3.35756 35.9467 3.23297 35.2627ZM2.64689 30.1558L7.67497 28.6468C7.71056 29.4439 7.76905 30.2359 7.86058 31.0216L2.84395 32.5268C2.83123 32.4124 2.82106 32.2993 2.80835 32.1849C2.74351 31.5289 2.68503 30.864 2.64689 30.1558ZM43.2249 15.3271L10.1706 25.2434V16.1522L26.741 10.2342L43.2249 14.9432V15.3271ZM43.2249 17.9817V20.4124L10.3435 30.2766C10.2638 29.4867 10.2138 28.6917 10.1935 27.8916L43.2249 17.9817ZM50.8529 20.7786V23.2093L45.7676 24.7349V22.3042L50.8529 20.7786ZM50.8529 18.124L45.7676 19.6496V17.2189L50.8529 15.6933V18.124ZM10.6994 32.8243L31.3864 26.619L43.2249 23.0669V25.4977L11.2232 35.0987C11.0224 34.3487 10.8431 33.5922 10.6994 32.8243ZM2.54264 9.8452L26.6978 2.59867L50.8529 9.8452V13.0388L45.7676 14.5643V13.9846C45.7675 13.7085 45.6774 13.4399 45.5112 13.2195C45.3449 12.9991 45.1113 12.8388 44.8459 12.7629L27.0474 7.6776C26.7924 7.60342 26.5205 7.61188 26.2706 7.70175L8.47209 14.0584C8.22502 14.1465 8.01126 14.3089 7.86013 14.5233C7.709 14.7377 7.62789 14.9936 7.62793 15.2559V26.0062L2.54264 27.5318V9.8452ZM26.6978 67.225C21.2803 64.4422 16.4926 60.5756 12.6317 55.8654C8.77087 51.1551 5.91925 45.7016 4.25384 39.8433L9.55144 38.2542C11.9959 45.1355 16.6593 51.0086 22.8075 54.9491L26.01 57.0074C26.2151 57.1394 26.4538 57.2095 26.6978 57.2095C26.9417 57.2095 27.1804 57.1394 27.3855 57.0074L30.588 54.9491L30.6211 54.9275C30.4028 55.9562 30.5127 57.0274 30.9353 57.9903C31.3579 58.9532 32.0719 59.7593 32.9768 60.2951C32.2052 61.2103 31.7823 62.3691 31.783 63.5662C31.7852 63.743 31.7971 63.9195 31.8186 64.095C30.1836 65.2517 28.4728 66.2974 26.6978 67.225ZM59.3707 73.7367H38.1396C37.4653 73.7367 36.8186 73.4689 36.3417 72.992C35.8649 72.5152 35.597 71.8684 35.597 71.1941C35.5959 70.5577 35.8357 69.9446 36.2683 69.4778C36.7008 69.0111 37.294 68.7254 37.9286 68.6781C38.2577 68.6441 38.5614 68.4857 38.7777 68.2352C38.9939 67.9847 39.1063 67.6611 39.0919 67.3305C39.079 67.002 38.9395 66.6913 38.7024 66.4635C38.4654 66.2357 38.1493 66.1086 37.8205 66.1088H36.8683C36.194 66.1088 35.5472 65.8409 35.0704 65.3641C34.5936 64.8872 34.3257 64.2405 34.3257 63.5662C34.3257 62.8918 34.5936 62.2451 35.0704 61.7682C35.5472 61.2914 36.194 61.0235 36.8683 61.0235C37.2055 61.0235 37.5289 60.8896 37.7673 60.6512C38.0057 60.4127 38.1396 60.0894 38.1396 59.7522C38.1396 59.415 38.0057 59.0917 37.7673 58.8532C37.5289 58.6148 37.2055 58.4809 36.8683 58.4809H35.597C34.9227 58.4809 34.2759 58.213 33.7991 57.7362C33.3222 57.2593 33.0544 56.6126 33.0544 55.9382C33.0544 55.2639 33.3222 54.6171 33.7991 54.1403C34.2759 53.6635 34.9227 53.3956 35.597 53.3956C35.9342 53.3956 36.2575 53.2617 36.496 53.0232C36.7344 52.7848 36.8683 52.4614 36.8683 52.1243C36.8683 51.7871 36.7344 51.4637 36.496 51.2253C36.2575 50.9869 35.9342 50.8529 35.597 50.8529H34.3257C33.6513 50.8529 33.0046 50.5851 32.5278 50.1082C32.0509 49.6314 31.783 48.9847 31.783 48.3103C31.783 47.636 32.0509 46.9892 32.5278 46.5124C33.0046 46.0355 33.6513 45.7677 34.3257 45.7677H50.8529C51.0608 45.7678 51.2655 45.717 51.4492 45.6196C51.6329 45.5222 51.79 45.3813 51.9065 45.2091C52.0231 45.037 52.0957 44.8389 52.1179 44.6321C52.1401 44.4254 52.1113 44.2164 52.0339 44.0234L49.8549 38.5771C49.6737 38.1265 49.5809 37.6452 49.5815 37.1595V33.6901C49.5815 32.8472 49.9164 32.0388 50.5124 31.4427C51.1085 30.8467 51.9169 30.5118 52.7598 30.5118C53.6028 30.5118 54.4112 30.8467 55.0072 31.4427C55.6033 32.0388 55.9381 32.8472 55.9381 33.6901V38.1397C55.9382 38.3017 55.9688 38.4621 56.0284 38.6127L58.5711 44.9693C58.6403 45.1406 58.7458 45.2949 58.8803 45.4215C59.0148 45.5481 59.1752 45.6441 59.3504 45.7028L66.1087 47.9556V69.2426L59.3707 73.7367ZM73.7366 68.6515H68.6514V48.3103H73.7366V68.6515ZM66.8969 16.3239L65.159 18.18C65.7394 18.7232 66.285 19.3024 66.7927 19.9141L68.748 18.288C68.1725 17.5954 67.5543 16.9394 66.8969 16.3239ZM73.7366 32.0997C73.7366 31.6013 73.7197 31.1076 73.6858 30.6186L71.1495 30.7902C71.1783 31.2225 71.1932 31.659 71.194 32.0997C71.194 32.4595 71.1838 32.818 71.1635 33.1727L73.7061 33.3189C73.7265 32.9146 73.7366 32.5082 73.7366 32.0997ZM64.8183 14.6063C64.0893 14.0764 63.328 13.5923 62.5388 13.157L61.312 15.3831C62.0078 15.7647 62.679 16.1893 63.322 16.6544L64.8183 14.6063Z" fill="#665DEC" stroke="#665DEC" stroke-width="1.37157" mask="url(#path-1-inside-1_57_2403)"/>
<path d="M57.8727 22.1495L58.0083 22.2038L58.0096 22.2043C59.9278 22.964 61.5726 24.2841 62.7293 25.9926C63.8221 27.6066 64.4314 29.4963 64.4895 31.4398H62.6313C62.5721 29.868 62.0736 28.3415 61.1891 27.0352C60.2403 25.634 58.8915 24.5512 57.3183 23.9279C57.318 23.9278 57.3178 23.9277 57.3175 23.9276L57.1818 23.873L57.8727 22.1495ZM70.7388 37.6259C70.9036 37.0702 71.043 36.5073 71.1565 35.939L72.9836 36.2713C72.8551 36.9156 72.6965 37.5535 72.5083 38.1829L70.7388 37.6259ZM57.3069 13.3861L57.7713 11.5871C58.4062 11.7613 59.0327 11.9653 59.6485 12.1982L58.9621 13.9249C58.4187 13.7207 57.8664 13.5409 57.3069 13.3861ZM71.3054 41.3038C71.1774 41.5717 71.0396 41.8374 70.8978 42.102L69.2752 41.2026C69.3949 40.9799 69.5093 40.7547 69.6184 40.5272L71.3054 41.3038ZM69.5134 23.4604C69.2551 22.9419 68.9738 22.4352 68.6705 21.9416L70.2342 20.9406C70.5796 21.4998 70.8987 22.0748 71.1905 22.6637L69.5134 23.4604ZM71.1082 28.0251C70.9872 27.4583 70.841 26.8972 70.6699 26.3435L72.4333 25.7621C72.6291 26.3904 72.7952 27.0275 72.9311 27.6713L71.1082 28.0251Z" fill="#665DEC" stroke="#665DEC" stroke-width="0.685786"/>
</svg>
