<svg width="77" height="44" viewBox="0 0 77 44" fill="none" xmlns="http://www.w3.org/2000/svg">
<g clip-path="url(#clip0_57_2476)">
<path d="M48.5242 30.3137C46.9649 30.3137 45.5541 30.902 44.4403 31.8823C42.9553 33.098 42.0271 35.0196 42.0271 37.1765C42.0271 40.9412 44.9601 44 48.5242 44C51.1231 44 53.3506 42.3922 54.353 40.0784C54.7986 39.2157 55.0213 38.1961 55.0213 37.1765C55.0213 33.3725 52.0883 30.3137 48.5242 30.3137Z" fill="black"/>
<path d="M70.503 30.3137C68.9437 30.3137 67.5329 30.902 66.4191 31.8823C64.934 33.098 64.0059 35.0196 64.0059 37.1765C64.0059 40.9412 66.9388 44 70.503 44C73.1018 44 75.3294 42.3922 76.3318 40.0784C76.7773 39.2157 77.0001 38.1961 77.0001 37.1765C77.0001 33.3725 74.0671 30.3137 70.503 30.3137Z" fill="black"/>
<path d="M26.5452 30.3137C24.9859 30.3137 23.5751 30.902 22.4613 31.8823C20.9763 33.098 20.0481 35.0196 20.0481 37.1765C20.0481 40.9412 22.9811 44 26.5452 44C29.144 44 31.3716 42.3922 32.374 40.0784C32.8196 39.2157 33.0423 38.1961 33.0423 37.1765C33.0423 33.3725 30.1093 30.3137 26.5452 30.3137Z" fill="black"/>
<path d="M53.0535 23.1765V16.1961C53.0535 12.7451 52.4224 9.80392 51.1601 7.41176C49.8978 4.98039 48.2642 3.13725 46.2594 1.88235C44.2174 0.627451 42.0641 0 39.7994 0C37.6832 0 35.6413 0.627451 33.6736 1.88235C31.7059 3.13725 30.1094 5.09804 28.8472 7.72549C28.1046 5.45098 26.9908 3.60784 25.5058 2.15686C23.9836 0.705882 22.2015 0 20.2338 0C17.8206 0 15.8529 0.627451 14.2194 1.80392C12.6229 3.01961 11.3978 4.39216 10.581 5.84314V4.07843C10.581 2.98039 10.0984 2.11765 9.13308 1.45098C8.16779 0.784314 6.97975 0.470588 5.60607 0.470588C3.93539 0.470588 2.59884 0.784314 1.55931 1.4902C0.519768 2.11765 0 3.01961 0 4.07843V33.451C0 34.3922 0.519768 35.2157 1.55931 36C2.59884 36.7843 3.97252 37.1372 5.60607 37.1372C7.16538 37.1372 8.50193 36.7451 9.61572 36C10.7295 35.2157 11.2864 34.3922 11.2864 33.451V16.1961C11.2864 14.8627 11.5092 13.7647 11.9547 12.902C12.4002 12.0784 12.9942 11.451 13.6996 11.0196C14.405 10.6274 15.1475 10.3922 15.9272 10.3922C16.744 10.3922 17.5607 10.6274 18.3033 11.0588C19.0458 11.4902 19.677 12.1569 20.1596 13.0196C20.6422 13.8823 20.9021 14.9804 20.9021 16.2745V23.451C22.6471 22.6667 24.5405 22.1961 26.5453 22.1961C28.5501 22.1961 30.4436 22.6274 32.1885 23.451V16.1961C32.1885 14.8627 32.4113 13.7647 32.8939 12.902C33.3394 12.0784 33.9335 11.4118 34.6389 10.9804C35.3443 10.549 36.0868 10.3137 36.8664 10.3137C37.6832 10.3137 38.5 10.549 39.2425 10.9804C39.985 11.4118 40.6162 12.0784 41.0617 12.9412C41.5072 13.8039 41.7671 14.902 41.7671 16.1961V24.2353C43.7719 23.0588 46.0738 22.3137 48.5241 22.3137C50.1205 22.3137 51.6427 22.6667 53.0535 23.1765Z" fill="black"/>
</g>
<defs>
<clipPath id="clip0_57_2476">
<rect width="77" height="44" fill="white"/>
</clipPath>
</defs>
</svg>
