<svg width="217" height="56" viewBox="0 0 217 56" fill="none" xmlns="http://www.w3.org/2000/svg">
<path d="M190.282 44.0825C188.84 44.0825 187.536 44.5947 186.506 45.4484C185.133 46.507 184.275 48.1801 184.275 50.0582C184.275 53.3363 186.987 55.9998 190.282 55.9998C192.684 55.9998 194.744 54.5998 195.67 52.5851C196.082 51.8339 196.288 50.946 196.288 50.0582C196.288 46.746 193.577 44.0825 190.282 44.0825Z" fill="white"/>
<path d="M210.599 44.0825C209.158 44.0825 207.854 44.5947 206.824 45.4484C205.451 46.507 204.593 48.1801 204.593 50.0582C204.593 53.3363 207.304 55.9998 210.599 55.9998C213.002 55.9998 215.061 54.5998 215.988 52.5851C216.4 51.8339 216.606 50.946 216.606 50.0582C216.606 46.746 213.894 44.0825 210.599 44.0825Z" fill="white"/>
<path d="M121.019 0C119.577 0 118.273 0.512204 117.244 1.36588C115.871 2.42443 115.013 4.09763 115.013 5.97571C115.013 9.25381 117.724 11.9173 121.019 11.9173C123.422 11.9173 125.481 10.5172 126.408 8.50258C126.819 7.75135 127.025 6.86353 127.025 5.97571C127.025 2.66346 124.314 0 121.019 0Z" fill="white"/>
<path d="M42.7654 19.3283C40.912 18.2356 38.9214 17.6892 36.7934 17.6892C34.8713 17.6892 32.9836 18.2356 31.1645 19.3283C29.3111 20.421 27.8353 22.1283 26.6683 24.4161C25.9819 22.4356 24.9522 20.8307 23.5793 19.5673C22.1721 18.338 20.5247 17.6892 18.7056 17.6892C16.509 17.6892 14.6556 18.2356 13.1797 19.26C11.6695 20.3185 10.5369 21.5137 9.78182 22.8112V21.2405C9.78182 20.2844 9.33563 19.5331 8.44326 18.9526C7.55088 18.3721 6.45257 18.099 5.18265 18.099C3.63815 18.099 2.40255 18.3721 1.44153 18.9868C0.48051 19.5673 0 20.3185 0 21.2405V46.8165C0 47.636 0.48051 48.3531 1.44153 49.0361C2.40255 49.719 3.67247 50.0263 5.18265 50.0263C6.62418 50.0263 7.85978 49.6849 8.88944 49.0361C9.91911 48.3531 10.4339 47.636 10.4339 46.8165V31.7919C10.4339 30.6309 10.6399 29.6748 11.0517 28.9235C11.4636 28.2065 12.0128 27.6601 12.6649 27.2845C13.317 26.943 14.0034 26.7381 14.7242 26.7381C15.4793 26.7381 16.2344 26.943 16.9208 27.3186C17.6073 27.6943 18.1908 28.2747 18.6369 29.026C19.0831 29.7772 19.3234 30.7333 19.3234 31.8602V46.8848C19.3234 48.0117 19.8725 48.797 21.0052 49.3092C22.1378 49.7873 23.3048 50.0605 24.506 50.0605C25.8103 50.0605 27.0116 49.8214 28.1099 49.3092C29.2082 48.8312 29.7573 48.0117 29.7573 46.8848V31.7919C29.7573 30.6309 29.9633 29.6748 30.4094 28.9235C30.8213 28.2065 31.3705 27.6601 32.0226 27.2503C32.6747 26.8747 33.3612 26.6698 34.0819 26.6698C34.837 26.6698 35.5921 26.8747 36.2785 27.2503C36.965 27.626 37.5485 28.2065 37.9603 28.9577C38.3722 29.7089 38.6124 30.665 38.6124 31.7919V46.8165C38.6124 47.636 39.1273 48.3531 40.1569 49.0361C41.1866 49.719 42.4222 50.0263 43.7951 50.0263C45.2366 50.0263 46.4722 49.6849 47.5019 49.0361C48.5316 48.3531 49.0464 47.636 49.0464 46.8165V31.7919C49.0464 28.787 48.4629 26.2259 47.296 24.143C46.129 22.0259 44.6188 20.421 42.7654 19.3283Z" fill="white"/>
<path d="M76.607 19.6012C74.2731 18.3378 71.7333 17.689 68.9875 17.689C66.2074 17.689 63.6332 18.3378 61.2993 19.6353C58.9654 20.9329 57.112 22.6403 55.7391 24.7915C54.3663 26.9428 53.6798 29.2648 53.6798 31.7575V36.4698C53.6798 38.9625 54.4006 41.3186 55.8078 43.4699C57.215 45.6553 59.1027 47.3968 61.4023 48.6944C63.7019 50.0261 66.2417 50.6749 68.9875 50.6749C71.7333 50.6749 74.2731 49.9919 76.607 48.6602C78.9409 47.3285 80.8287 45.5528 82.2359 43.4016C83.6431 41.2162 84.3638 38.8942 84.3638 36.4356V31.7916C84.3638 29.1965 83.6431 26.8403 82.2359 24.6891C80.7943 22.572 78.9409 20.8988 76.607 19.6012ZM73.8956 36.5039C73.8956 37.3917 73.6553 38.2454 73.2091 39.0308C72.7629 39.8162 72.1795 40.465 71.4244 40.943C70.6693 41.4211 69.8456 41.6942 68.9532 41.6942C68.0608 41.6942 67.2371 41.4552 66.482 40.943C65.7269 40.465 65.1434 39.8162 64.7316 39.0308C64.3197 38.2454 64.0794 37.3917 64.0794 36.5039V31.7916C64.0794 30.938 64.2854 30.1526 64.7316 29.3672C65.1434 28.616 65.7612 27.9672 66.482 27.4891C67.2371 27.0111 68.0608 26.7379 68.9532 26.7379C69.8456 26.7379 70.6693 26.9769 71.4244 27.4891C72.1795 27.9672 72.7629 28.616 73.2091 29.3672C73.6553 30.1184 73.8956 30.938 73.8956 31.7916V36.5039Z" fill="white"/>
<path d="M108.974 17.689H107.017C105.885 17.689 104.786 17.9963 103.757 18.6109C102.693 19.2256 101.766 19.9768 100.908 20.8988C100.084 21.8207 99.4321 22.7769 98.9859 23.7671V21.2402C98.9859 20.2841 98.5397 19.5329 97.6473 18.9524C96.755 18.3719 95.6567 18.0646 94.3524 18.0646C92.8766 18.0646 91.641 18.3378 90.6799 18.9524C89.7189 19.5329 89.2384 20.2841 89.2384 21.2402V46.8163C89.2384 47.6358 89.7189 48.3529 90.6799 49.0358C91.641 49.7188 92.8766 50.0261 94.3524 50.0261C95.8283 50.0261 97.0982 49.6846 98.1279 49.0358C99.1575 48.3529 99.6724 47.6358 99.6724 46.8163V36.7429C99.6724 34.6941 100.016 32.9185 100.736 31.4502C101.457 29.9819 102.384 28.8209 103.516 28.0013C104.649 27.1818 105.816 26.772 107.017 26.772H108.974C109.969 26.772 110.827 26.3281 111.582 25.4403C112.337 24.5525 112.68 23.4598 112.68 22.2305C112.68 21.0354 112.303 19.9768 111.582 19.089C110.827 18.1329 109.969 17.689 108.974 17.689Z" fill="white"/>
<path d="M124.692 18.9855C123.663 18.405 122.427 18.0977 120.986 18.0977C119.441 18.0977 118.206 18.3708 117.245 18.9855C116.283 19.566 115.803 20.3172 115.803 21.2733V46.8493C115.803 47.6689 116.283 48.386 117.245 49.0689C118.206 49.7518 119.475 50.0592 120.986 50.0592C122.427 50.0592 123.663 49.7177 124.692 49.0689C125.722 48.386 126.237 47.6689 126.237 46.8493V21.2392C126.271 20.3172 125.756 19.566 124.692 18.9855Z" fill="white"/>
<path d="M158.777 18.2353C157.644 17.8255 156.717 17.6206 155.997 17.6206C155.379 17.6206 154.795 17.7572 154.28 17.9962C153.766 18.2353 153.388 18.6792 153.182 19.2938L146.249 36.8112L139.316 19.2938C139.076 18.6792 138.698 18.2353 138.183 17.9962C137.634 17.7572 137.051 17.6206 136.433 17.6206C135.541 17.6206 134.545 17.8255 133.413 18.2011C132.314 18.5767 131.353 19.1231 130.53 19.7719C129.706 20.4548 129.328 21.1719 129.328 21.9914C129.328 22.1621 129.363 22.367 129.431 22.6402C129.5 22.8792 129.568 23.0841 129.671 23.289L141.547 49.1382C141.822 49.7187 142.405 50.1626 143.332 50.4699C144.258 50.7773 145.219 50.948 146.283 50.948C147.313 50.948 148.308 50.7773 149.235 50.4699C150.162 50.1626 150.745 49.7187 151.02 49.1382L162.895 23.289C162.998 23.05 163.067 22.8792 163.101 22.6743C163.136 22.5036 163.17 22.2987 163.17 22.0597C163.17 21.2402 162.724 20.5231 161.866 19.8402C160.905 19.1572 159.909 18.645 158.777 18.2353Z" fill="white"/>
<path d="M193.302 24.7232C191.895 22.6061 190.007 20.8988 187.674 19.6353C185.34 18.3378 182.8 17.689 180.054 17.689C177.274 17.689 174.7 18.3378 172.366 19.6353C170.032 20.9329 168.179 22.6403 166.806 24.7915C165.433 26.9428 164.746 29.2648 164.746 31.7575V36.4698C164.746 36.9478 164.781 37.4259 164.849 37.9039C166.428 37.221 168.144 36.8112 169.963 36.8112C171.92 36.8112 173.773 37.2551 175.455 38.0064C175.318 37.4942 175.215 37.0161 175.215 36.4698V31.7916C175.215 30.938 175.421 30.1526 175.867 29.3672C176.279 28.616 176.896 27.9672 177.617 27.4891C178.372 27.0111 179.196 26.7379 180.088 26.7379C180.981 26.7379 181.804 26.9769 182.56 27.4891C183.315 27.9672 183.898 28.616 184.344 29.3672C184.79 30.1184 185.031 30.938 185.031 31.7916V36.5039C185.031 37.0844 184.893 37.6308 184.722 38.143C186.438 37.3234 188.326 36.8112 190.351 36.8112C192.135 36.8112 193.852 37.1868 195.396 37.8015C195.43 37.3576 195.499 36.9137 195.499 36.4698V31.7916C195.43 29.1965 194.71 26.8403 193.302 24.7232Z" fill="white"/>
<path d="M169.962 44.0825C168.521 44.0825 167.217 44.5947 166.187 45.4484C164.814 46.507 163.956 48.1801 163.956 50.0582C163.956 53.3363 166.667 55.9998 169.962 55.9998C172.365 55.9998 174.424 54.5998 175.351 52.5851C175.763 51.8339 175.969 50.946 175.969 50.0582C175.969 46.746 173.257 44.0825 169.962 44.0825Z" fill="white"/>
</svg>
