<svg width="88" height="52" viewBox="0 0 88 52" fill="none" xmlns="http://www.w3.org/2000/svg">
<path d="M81.1137 27.3985L80.1963 27.1622L80.3492 26.2239C80.6341 24.4793 80.4673 22.6791 79.8765 21.0179C79.2857 19.3567 78.271 17.8554 76.9434 16.6877C75.6228 15.52 74.0103 14.6999 72.2865 14.3176C70.5697 13.9353 68.7626 13.9909 67.0666 14.4913L65.8364 14.8528L65.7321 13.5739C65.2247 7.37397 60.9432 2.55027 54.8128 1.29917C48.6893 0.04807 42.8578 2.78659 39.9594 8.28449L39.452 9.24367L38.5137 8.70847C35.8447 7.1724 32.4042 7.1724 29.7352 8.70152C28.4006 9.46609 27.2886 10.5712 26.5101 11.8988C25.7316 13.2263 25.3146 14.7416 25.2937 16.2776V17.3828L24.1817 17.3063C23.8897 17.2855 23.5978 17.2785 23.3128 17.2785C19.0452 17.2785 15.1042 19.4679 12.6576 23.263C10.0929 27.2456 9.83569 31.9998 11.9834 35.9964L12.4213 36.8096L2.72526 43.642C1.89119 44.2467 1.30734 45.1364 1.09188 46.1512C0.87641 47.166 1.04322 48.2224 1.55757 49.1191C2.07886 50.0226 2.91293 50.6899 3.89991 51.0096C4.88689 51.3293 5.95032 51.2737 6.90255 50.8498L23.7577 43.0512L80.4951 42.8914C85.0756 42.0851 86.848 38.3665 86.9731 35.4125C87.1051 32.4447 85.6455 28.5732 81.1137 27.3985ZM6.38821 49.7724C5.99203 49.9601 5.56804 50.0504 5.13016 50.0504C4.83128 50.0504 4.52546 50.0087 4.23353 49.9114C3.51762 49.689 2.91988 49.2025 2.54455 48.5561C2.16921 47.9027 2.05106 47.1451 2.21092 46.4153C2.37078 45.6785 2.80172 45.0391 3.42032 44.6081L29.756 26.0293L35.6501 36.2466L6.38821 49.7724ZM33.3981 23.68C34.0445 22.2065 35.1218 20.9971 36.505 20.1839C38.9933 18.7451 44.3452 19.9128 47.3201 20.733L48.9048 21.1708L47.8275 22.415C45.9161 24.6392 44.8526 27.475 44.8248 30.4012C44.7553 31.7774 44.7067 32.7435 43.9977 33.4038L43.8448 33.522C43.1845 33.9321 42.4686 34.2101 41.6971 34.3422C41.3773 34.3908 41.0576 34.4186 40.7309 34.4186C40.307 34.4186 39.8899 34.3769 39.4659 34.2796C37.8951 34.0989 36.4425 33.4386 35.2609 32.3751C34.0723 31.2978 33.2591 29.9007 32.9255 28.3299C32.5849 26.7591 32.7517 25.1466 33.3981 23.68ZM84.1859 39.4647C83.0807 40.7575 81.5377 41.5846 79.8487 41.7862C79.7723 41.7932 79.6819 41.8071 65.3012 41.8627H64.1127L64.2586 40.695C64.5505 38.3387 65.5167 34.2449 68.6375 33.2023C68.7139 33.1745 68.7834 33.1397 68.839 33.0911C68.9016 33.0354 68.9502 32.9729 68.985 32.9034C69.0198 32.8339 69.0406 32.7574 69.0476 32.674C69.0476 32.6115 69.0476 32.5489 69.0267 32.4794C68.8599 32.111 68.6931 32.0832 68.6166 32.0763C67.9355 31.9512 66.5245 32.8686 65.7808 33.7236L65.0023 34.6063L64.2169 33.7305C62.8615 32.2153 60.7903 30.4081 58.6287 30.4081C58.4688 30.4081 58.3228 30.4707 58.2047 30.5819C58.0935 30.6931 58.0309 30.8391 58.0309 30.9989C58.0309 31.1588 58.1004 31.3117 58.2047 31.4229C58.3228 31.5341 58.4688 31.5967 58.6287 31.5967C60.7903 31.5967 63.1048 34.2031 64.0014 35.3291L64.3768 35.8018L64.1544 36.3648C63.5775 37.8244 63.2021 39.3605 63.0423 40.9243L62.945 41.8627H26.3363L35.1149 37.8035C35.4694 37.6437 35.7752 37.3865 35.9976 37.0668C36.227 36.7471 36.359 36.3717 36.3938 35.9825L36.512 34.6688L37.7631 35.0859C40.3348 35.9269 42.9065 35.6975 44.4773 34.4812C45.6033 33.6123 46.1246 32.3126 46.0134 30.6236C45.9925 28.8026 46.4096 27.0441 47.2019 25.4732C47.9943 23.8955 49.1689 22.5192 50.6008 21.4906C50.6633 21.4419 50.7259 21.3516 50.7676 21.2542C50.8093 21.15 50.8232 21.0457 50.8023 20.9345C50.7884 20.8303 50.7467 20.726 50.6772 20.6495C50.6077 20.5592 50.5173 20.4966 50.4131 20.4549L50.288 20.4202C46.91 19.3081 39.8691 17.0005 35.4624 19.4471C33.5997 20.4827 32.3903 22.2343 31.7647 24.806L31.4728 26.0154L30.326 25.508C29.9784 25.3551 29.5892 25.2856 29.2069 25.3273C28.8246 25.362 28.4493 25.501 28.1365 25.7235L13.3249 36.1702L12.8105 35.0094C12.0182 33.237 11.6776 31.277 11.8235 29.3378C11.9695 27.4055 12.602 25.5149 13.6515 23.8816C14.7011 22.2482 16.1607 20.8928 17.8566 19.9545C19.5387 19.0301 21.4431 18.5227 23.3615 18.5018C23.9592 18.4323 24.557 18.5505 25.0922 18.6547C25.9262 18.8146 26.3502 18.8632 26.5865 18.62C26.7673 18.4462 26.7534 18.196 26.6213 17.5148C26.5448 17.1117 26.4545 16.6669 26.4892 16.2012C26.4962 14.7763 26.941 13.3445 27.7612 12.1143C28.5814 10.884 29.7352 9.92482 31.0905 9.34098C32.4528 8.75713 33.9402 8.58336 35.3999 8.84053C36.8595 9.09771 38.2009 9.76496 39.2783 10.7728C39.3547 10.8492 39.4451 10.8979 39.5424 10.9257C39.6397 10.9535 39.744 10.9535 39.8413 10.9257C39.9386 10.9049 40.0289 10.8562 40.1054 10.7936C40.1819 10.7241 40.2375 10.6407 40.2722 10.5434C42.7327 3.71102 49.0091 1.51464 54.1386 2.37651C59.2612 3.23143 64.481 7.35311 64.5853 14.6165V14.6304C64.5853 15.0265 64.5575 15.4227 64.5297 15.8259L64.5158 15.9579C64.5088 16.0622 64.5366 16.1664 64.5853 16.2637C64.6339 16.361 64.7104 16.4445 64.8077 16.5001C64.8981 16.5626 65.0023 16.5904 65.1135 16.5904C65.2247 16.5904 65.329 16.5626 65.4263 16.507C66.8234 15.6729 68.4429 15.2281 70.0832 15.2212C72.5506 15.2281 74.8652 16.1873 76.6098 17.9319C78.3335 19.6556 79.2927 21.9354 79.3135 24.375C79.4178 25.1605 79.2023 25.8972 79.0147 26.5575C78.8061 27.2873 78.681 27.76 78.8617 28.1075C78.9104 28.1701 78.9799 28.2257 79.0494 28.2604C79.1328 28.3091 79.2232 28.3299 79.3205 28.3369C81.0234 28.4064 82.629 29.1014 83.8314 30.3108C85.0339 31.5133 85.7359 33.1119 85.7984 34.8148C85.8679 36.5177 85.291 38.1719 84.1859 39.4647Z" fill="#665DEC" stroke="#665DEC" stroke-width="1.5"/>
</svg>
