<svg width="80" height="70" viewBox="0 0 80 70" fill="none" xmlns="http://www.w3.org/2000/svg">
<mask id="path-1-outside-1_70_4039" maskUnits="userSpaceOnUse" x="0" y="0" width="80" height="70" fill="black">
<rect fill="white" width="80" height="70"/>
<path d="M70.2049 10.5805C70.1691 10.5302 70.13 10.4817 70.085 10.4368C70.04 10.3916 69.9914 10.3524 69.9412 10.3168C64.1182 4.56018 56.1194 1 47.3039 1C38.5964 1 30.5107 4.51886 24.6147 10.3547C24.5829 10.3802 24.5521 10.4074 24.5225 10.4368C24.4944 10.4649 24.4682 10.4943 24.4437 10.5247C20.6982 14.2877 17.8566 18.995 16.3286 24.3327C12.6966 26.6073 10.2746 30.6426 10.2746 35.235C10.2746 40.2051 13.1113 44.5222 17.2486 46.6612C7.8918 49.244 1 57.8304 1 67.9972C1 68.6117 1.49815 69.1099 2.11266 69.1099H44.1496C44.7641 69.1099 45.2623 68.6117 45.2623 67.9972C45.2623 57.8305 38.3706 49.2443 29.014 46.6614C33.1516 44.5224 35.9883 40.2053 35.9883 35.235C35.9883 32.5375 35.1514 30.0324 33.7261 27.9625C35.8864 22.3768 41.2729 18.6625 47.3037 18.6625C48.6554 18.6625 49.9828 18.8465 51.2652 19.2088L45.9002 29.4599C44.1952 29.8998 42.761 31.126 42.0771 32.7656C40.8749 35.6475 42.2413 38.9702 45.1232 40.1727C45.8258 40.4658 46.5646 40.6125 47.3035 40.6125C48.033 40.6125 48.7627 40.4696 49.4576 40.1838C50.8567 39.6084 51.9479 38.5228 52.5303 37.1267C53.2132 35.4901 53.0773 33.612 52.1948 32.0921L55.7623 21.3729C59.5534 24.0891 61.859 28.5106 61.859 33.2181C61.859 33.8326 62.3571 34.3308 62.9716 34.3308H78.4091C79.0236 34.3308 79.5218 33.8326 79.5218 33.2181C79.5218 24.4025 75.9616 16.4036 70.205 10.5806L70.2049 10.5805ZM34.3527 22.5439C34.3061 22.6003 34.2599 22.6571 34.2141 22.7141C34.1281 22.8213 34.0435 22.9295 33.9601 23.0387C33.9145 23.0983 33.8692 23.1582 33.8243 23.2185C33.7433 23.3278 33.6638 23.4385 33.5851 23.5499C33.5411 23.6124 33.4971 23.6747 33.4538 23.7378C33.3772 23.8497 33.3023 23.9632 33.2284 24.0771C33.1863 24.1418 33.144 24.2064 33.1027 24.2719C33.0302 24.3868 32.96 24.5034 32.8902 24.6204C32.8504 24.687 32.8102 24.7532 32.7714 24.8202C32.7026 24.9393 32.6363 25.0601 32.5704 25.1811C32.5338 25.2481 32.4965 25.3146 32.4607 25.3821C32.3947 25.5071 32.3316 25.6337 32.2688 25.7608C32.2363 25.8266 32.2026 25.8916 32.1708 25.9579C32.1549 25.9909 32.139 26.024 32.1232 26.0572C29.803 23.7836 26.6289 22.3781 23.1315 22.3781C21.7175 22.3781 20.3577 22.611 19.0842 23.0346C19.0899 23.0185 19.0953 23.0023 19.1012 22.9864C19.1406 22.8775 19.1818 22.7695 19.2225 22.6612C19.2538 22.5778 19.2845 22.494 19.3166 22.411C19.3576 22.3048 19.4 22.1996 19.4421 22.0941C19.4758 22.0098 19.5089 21.9253 19.5432 21.8415C19.586 21.7372 19.6302 21.6337 19.674 21.5301C19.7095 21.4463 19.7445 21.3624 19.7805 21.2791C19.825 21.1766 19.871 21.0749 19.9164 20.9728C19.954 20.8891 19.991 20.8051 20.0291 20.7218C20.0752 20.6214 20.1226 20.5216 20.1696 20.4217C20.2091 20.3385 20.248 20.2548 20.2881 20.172C20.3361 20.0727 20.3852 19.9743 20.4343 19.8756C20.4753 19.7931 20.5162 19.7104 20.5578 19.6286C20.6074 19.531 20.6583 19.434 20.709 19.3371C20.7519 19.255 20.7946 19.173 20.8382 19.0915C20.8894 18.9956 20.9417 18.9006 20.9938 18.8055C21.0386 18.724 21.0833 18.6423 21.1288 18.5612C21.1817 18.467 21.2354 18.3733 21.2893 18.2799C21.3357 18.1993 21.3821 18.1185 21.4293 18.0384C21.4839 17.9456 21.5393 17.8534 21.5948 17.7612C21.643 17.6814 21.6911 17.6015 21.7401 17.5222C21.796 17.4312 21.8528 17.3408 21.9097 17.2505C21.9599 17.1709 22.0101 17.0914 22.061 17.0124C22.1184 16.9234 22.1762 16.8349 22.2344 16.7466C22.2864 16.6678 22.3385 16.5893 22.3911 16.5109C22.45 16.4235 22.5094 16.3364 22.5692 16.2496C22.6229 16.1716 22.6769 16.0937 22.7313 16.0161C22.7915 15.9304 22.8521 15.8452 22.9131 15.7602C22.9686 15.6828 23.0246 15.6058 23.0808 15.5291C23.1423 15.4451 23.2042 15.3615 23.2665 15.2783C23.3239 15.2016 23.3817 15.1252 23.4397 15.0492C23.5025 14.9672 23.5655 14.8853 23.6289 14.8041C23.688 14.7283 23.7478 14.6528 23.8077 14.5774C23.8716 14.4972 23.9357 14.4171 24.0004 14.3376C24.0616 14.2622 24.1232 14.1875 24.1852 14.1128C24.2501 14.0346 24.3151 13.9566 24.3807 13.879C24.4438 13.8045 24.5074 13.7304 24.5713 13.6566C24.6373 13.5802 24.7034 13.5039 24.77 13.4282C24.8349 13.3546 24.9005 13.2815 24.966 13.2085C25.0331 13.134 25.1001 13.0593 25.1679 12.9854C25.2205 12.928 25.2739 12.8713 25.3268 12.8144L34.6752 22.1627C34.6574 22.1829 34.6405 22.2041 34.6231 22.2244C34.5317 22.3296 34.4415 22.4361 34.3527 22.5439ZM27.2802 10.8977C27.3593 10.827 27.4391 10.7572 27.5189 10.6874C27.5879 10.627 27.6564 10.5661 27.7259 10.5064C27.8085 10.4353 27.892 10.3654 27.9754 10.2953C28.0436 10.2379 28.1113 10.1801 28.18 10.1233C28.266 10.0523 28.3529 9.98248 28.4395 9.91238C28.5068 9.85802 28.5737 9.80302 28.6413 9.7493C28.7327 9.67666 28.8252 9.60545 28.9175 9.53392C28.9816 9.48433 29.0452 9.43394 29.1095 9.38482C29.2095 9.30869 29.3106 9.23382 29.4115 9.15895C29.4695 9.11588 29.5269 9.07201 29.5853 9.02941C29.6991 8.94612 29.814 8.86442 29.9289 8.78288C29.9755 8.74982 30.0216 8.7158 30.0683 8.68306C30.2282 8.57068 30.3892 8.46005 30.5514 8.35085C30.5536 8.34942 30.5557 8.34783 30.5579 8.3464C30.724 8.23465 30.8912 8.1245 31.0594 8.01594C31.0761 8.00529 31.0929 7.99496 31.1096 7.98431C31.26 7.88782 31.411 7.79229 31.5631 7.69835C31.6078 7.67086 31.6531 7.64415 31.6979 7.61681C31.8223 7.54083 31.947 7.46501 32.0727 7.39078C32.1296 7.35725 32.1873 7.32466 32.2445 7.29144C32.359 7.22484 32.4734 7.15824 32.589 7.09307C32.6519 7.05746 32.7156 7.02313 32.7789 6.988C32.8894 6.92681 32.9997 6.86529 33.111 6.80537C33.1784 6.76913 33.2465 6.734 33.3143 6.69808C33.4222 6.64101 33.5301 6.58379 33.6388 6.528C33.7097 6.4916 33.7813 6.45647 33.8523 6.42071C33.959 6.36714 34.0655 6.31325 34.1728 6.26096C34.2457 6.22536 34.3191 6.19086 34.3924 6.15574C34.4989 6.10487 34.6053 6.05385 34.7124 6.0041C34.7874 5.96929 34.8629 5.93559 34.9383 5.90141C35.0443 5.85325 35.1501 5.80525 35.2568 5.75836C35.334 5.72434 35.4118 5.69144 35.4892 5.65806C35.595 5.6126 35.7007 5.56714 35.8071 5.52279C35.8858 5.49005 35.9648 5.45826 36.0438 5.42615C36.1498 5.38307 36.256 5.34 36.3626 5.29819C36.4429 5.26672 36.5235 5.23604 36.6041 5.20521C36.7099 5.16468 36.8159 5.12414 36.9224 5.08472C37.0046 5.05436 37.0871 5.0248 37.1695 4.99507C37.2753 4.95693 37.3812 4.91894 37.4874 4.88206C37.5708 4.85313 37.6546 4.82484 37.7383 4.79655C37.8445 4.76062 37.9507 4.72518 38.0574 4.69052C38.1419 4.66303 38.2266 4.63616 38.3115 4.60946C38.418 4.57592 38.5247 4.5427 38.6316 4.51027C38.7175 4.48421 38.8038 4.45877 38.8899 4.4335C38.9964 4.40219 39.1031 4.37151 39.2099 4.34131C39.2972 4.31683 39.3848 4.29283 39.4723 4.26899C39.579 4.24006 39.6858 4.21161 39.7929 4.18379C39.8813 4.1609 39.9699 4.13849 40.0585 4.11623C40.1655 4.08953 40.2727 4.0633 40.3799 4.03787C40.4696 4.01657 40.5592 3.99559 40.6492 3.97509C40.7562 3.95061 40.8633 3.92692 40.9706 3.90372C41.0612 3.88401 41.1521 3.86477 41.243 3.84602C41.3503 3.82376 41.458 3.80231 41.5656 3.78132C41.6573 3.76336 41.749 3.74572 41.8409 3.72871C41.9482 3.70884 42.0558 3.68961 42.1635 3.67085C42.2565 3.65464 42.3495 3.63859 42.4426 3.62333C42.5498 3.60568 42.6572 3.58899 42.7647 3.57246C42.8589 3.558 42.9532 3.54369 43.0476 3.53002C43.1548 3.5146 43.262 3.5003 43.3693 3.48599C43.4647 3.47344 43.5601 3.46072 43.6556 3.44896C43.7626 3.43577 43.8697 3.42384 43.977 3.41176C44.0737 3.40095 44.1703 3.39015 44.2671 3.38029C44.3737 3.36948 44.4807 3.35963 44.5877 3.34993C44.6853 3.34103 44.7829 3.33197 44.8808 3.32418C44.9875 3.3156 45.0944 3.30813 45.2012 3.30066C45.3001 3.29366 45.399 3.28651 45.498 3.28063C45.6039 3.27427 45.7102 3.26918 45.8164 3.26394C45.9168 3.25901 46.0171 3.25361 46.1178 3.24963C46.1421 3.24868 46.1664 3.2482 46.1907 3.24741V16.4726C46.129 16.4767 46.0678 16.4836 46.0062 16.4883C45.9718 16.491 45.9378 16.4942 45.9035 16.4971C45.7207 16.5123 45.5387 16.5301 45.3573 16.5513C45.3195 16.5557 45.2817 16.5605 45.2438 16.5653C45.0663 16.5872 44.8895 16.6117 44.7136 16.639C44.6739 16.6452 44.6344 16.6517 44.5948 16.6581C44.4208 16.6866 44.2475 16.7176 44.0751 16.7512C44.0352 16.759 43.9953 16.767 43.9554 16.7751C43.7834 16.8101 43.6124 16.8477 43.4421 16.8879C43.4032 16.8972 43.3643 16.9062 43.3255 16.9156C43.1541 16.9574 42.9837 17.0021 42.8143 17.0491C42.7779 17.0593 42.7415 17.069 42.7051 17.0793C42.5326 17.1284 42.3616 17.1806 42.1912 17.2351C42.1589 17.2454 42.1263 17.2553 42.0941 17.2659C41.9186 17.3233 41.7447 17.3837 41.5716 17.4467C41.5455 17.4562 41.5191 17.4651 41.4931 17.4748C41.3112 17.5419 41.131 17.6123 40.9519 17.6856C40.9355 17.6922 40.9188 17.6986 40.9024 17.7053C40.7077 17.7857 40.5146 17.8693 40.3234 17.9569L40.3227 17.9572C39.348 18.4032 38.4201 18.9405 37.5509 19.5605C37.5486 19.5623 37.5463 19.564 37.5439 19.5658C37.3769 19.6852 37.2121 19.8077 37.0494 19.9331C37.0258 19.9514 37.0027 19.9705 36.979 19.9889C36.8384 20.0986 36.699 20.2102 36.5616 20.3243C36.527 20.3531 36.4931 20.383 36.4588 20.4121C36.3887 20.4713 36.3181 20.5303 36.249 20.5909L26.9015 11.2434C26.9578 11.1913 27.0144 11.1396 27.0711 11.088C27.1406 11.0247 27.2096 10.961 27.2797 10.8984L27.2802 10.8977ZM43.0063 66.8847H3.25599C3.83457 56.428 12.5214 48.0981 23.119 48.0918C23.1231 48.0918 23.1272 48.0921 23.1314 48.0921C23.1355 48.0921 23.1395 48.0918 23.1436 48.0918C33.7409 48.0984 42.4276 56.4281 43.0061 66.8847H43.0063ZM23.1436 45.8665C23.1395 45.8665 23.1354 45.8665 23.1312 45.8665C23.1272 45.8665 23.1233 45.8665 23.1191 45.8665C17.2626 45.8598 12.4999 41.0933 12.4999 35.2352C12.4999 29.377 17.2693 24.6036 23.1315 24.6036C28.9938 24.6036 33.7631 29.3729 33.7631 35.2352C33.7631 41.0975 29.0003 45.8598 23.1436 45.8665ZM49.9141 31.898C49.8002 32.2404 49.8593 32.6168 50.0729 32.9078C50.7941 33.8903 50.9451 35.1471 50.4767 36.2698C50.1232 37.1173 49.4607 37.7765 48.6114 38.1259C47.7623 38.4751 46.8276 38.4729 45.9801 38.1192C44.2305 37.3891 43.401 35.372 44.1309 33.6226C44.5993 32.4998 45.5988 31.7228 46.8043 31.5443C47.1562 31.4922 47.462 31.2749 47.627 30.9596L53.8533 19.063C53.8533 19.063 53.8536 19.0626 53.8537 19.0622L54.7664 17.3184L54.1063 19.3021C54.1054 19.3048 54.1046 19.3075 54.1036 19.3102L49.9143 31.8982L49.9141 31.898ZM57.7767 10.1966C56.9088 9.8345 55.898 10.3242 55.3798 11.3474L52.3154 17.2027C51.0505 16.8069 49.7458 16.5648 48.4165 16.4779V3.24804C55.8481 3.52049 62.5978 6.50829 67.7 11.2484L58.3541 20.5942C57.7711 20.0821 57.1499 19.6081 56.4931 19.177L58.6374 12.7341C59.0196 11.6507 58.6514 10.5617 57.7767 10.1966ZM64.0471 32.1054C63.799 28.4062 62.3214 24.9174 59.9246 22.1707L69.2728 12.8225C74.013 17.9248 77.0037 24.6737 77.276 32.1054H64.047H64.0471Z"/>
</mask>
<path d="M70.2049 10.5805C70.1691 10.5302 70.13 10.4817 70.085 10.4368C70.04 10.3916 69.9914 10.3524 69.9412 10.3168C64.1182 4.56018 56.1194 1 47.3039 1C38.5964 1 30.5107 4.51886 24.6147 10.3547C24.5829 10.3802 24.5521 10.4074 24.5225 10.4368C24.4944 10.4649 24.4682 10.4943 24.4437 10.5247C20.6982 14.2877 17.8566 18.995 16.3286 24.3327C12.6966 26.6073 10.2746 30.6426 10.2746 35.235C10.2746 40.2051 13.1113 44.5222 17.2486 46.6612C7.8918 49.244 1 57.8304 1 67.9972C1 68.6117 1.49815 69.1099 2.11266 69.1099H44.1496C44.7641 69.1099 45.2623 68.6117 45.2623 67.9972C45.2623 57.8305 38.3706 49.2443 29.014 46.6614C33.1516 44.5224 35.9883 40.2053 35.9883 35.235C35.9883 32.5375 35.1514 30.0324 33.7261 27.9625C35.8864 22.3768 41.2729 18.6625 47.3037 18.6625C48.6554 18.6625 49.9828 18.8465 51.2652 19.2088L45.9002 29.4599C44.1952 29.8998 42.761 31.126 42.0771 32.7656C40.8749 35.6475 42.2413 38.9702 45.1232 40.1727C45.8258 40.4658 46.5646 40.6125 47.3035 40.6125C48.033 40.6125 48.7627 40.4696 49.4576 40.1838C50.8567 39.6084 51.9479 38.5228 52.5303 37.1267C53.2132 35.4901 53.0773 33.612 52.1948 32.0921L55.7623 21.3729C59.5534 24.0891 61.859 28.5106 61.859 33.2181C61.859 33.8326 62.3571 34.3308 62.9716 34.3308H78.4091C79.0236 34.3308 79.5218 33.8326 79.5218 33.2181C79.5218 24.4025 75.9616 16.4036 70.205 10.5806L70.2049 10.5805ZM34.3527 22.5439C34.3061 22.6003 34.2599 22.6571 34.2141 22.7141C34.1281 22.8213 34.0435 22.9295 33.9601 23.0387C33.9145 23.0983 33.8692 23.1582 33.8243 23.2185C33.7433 23.3278 33.6638 23.4385 33.5851 23.5499C33.5411 23.6124 33.4971 23.6747 33.4538 23.7378C33.3772 23.8497 33.3023 23.9632 33.2284 24.0771C33.1863 24.1418 33.144 24.2064 33.1027 24.2719C33.0302 24.3868 32.96 24.5034 32.8902 24.6204C32.8504 24.687 32.8102 24.7532 32.7714 24.8202C32.7026 24.9393 32.6363 25.0601 32.5704 25.1811C32.5338 25.2481 32.4965 25.3146 32.4607 25.3821C32.3947 25.5071 32.3316 25.6337 32.2688 25.7608C32.2363 25.8266 32.2026 25.8916 32.1708 25.9579C32.1549 25.9909 32.139 26.024 32.1232 26.0572C29.803 23.7836 26.6289 22.3781 23.1315 22.3781C21.7175 22.3781 20.3577 22.611 19.0842 23.0346C19.0899 23.0185 19.0953 23.0023 19.1012 22.9864C19.1406 22.8775 19.1818 22.7695 19.2225 22.6612C19.2538 22.5778 19.2845 22.494 19.3166 22.411C19.3576 22.3048 19.4 22.1996 19.4421 22.0941C19.4758 22.0098 19.5089 21.9253 19.5432 21.8415C19.586 21.7372 19.6302 21.6337 19.674 21.5301C19.7095 21.4463 19.7445 21.3624 19.7805 21.2791C19.825 21.1766 19.871 21.0749 19.9164 20.9728C19.954 20.8891 19.991 20.8051 20.0291 20.7218C20.0752 20.6214 20.1226 20.5216 20.1696 20.4217C20.2091 20.3385 20.248 20.2548 20.2881 20.172C20.3361 20.0727 20.3852 19.9743 20.4343 19.8756C20.4753 19.7931 20.5162 19.7104 20.5578 19.6286C20.6074 19.531 20.6583 19.434 20.709 19.3371C20.7519 19.255 20.7946 19.173 20.8382 19.0915C20.8894 18.9956 20.9417 18.9006 20.9938 18.8055C21.0386 18.724 21.0833 18.6423 21.1288 18.5612C21.1817 18.467 21.2354 18.3733 21.2893 18.2799C21.3357 18.1993 21.3821 18.1185 21.4293 18.0384C21.4839 17.9456 21.5393 17.8534 21.5948 17.7612C21.643 17.6814 21.6911 17.6015 21.7401 17.5222C21.796 17.4312 21.8528 17.3408 21.9097 17.2505C21.9599 17.1709 22.0101 17.0914 22.061 17.0124C22.1184 16.9234 22.1762 16.8349 22.2344 16.7466C22.2864 16.6678 22.3385 16.5893 22.3911 16.5109C22.45 16.4235 22.5094 16.3364 22.5692 16.2496C22.6229 16.1716 22.6769 16.0937 22.7313 16.0161C22.7915 15.9304 22.8521 15.8452 22.9131 15.7602C22.9686 15.6828 23.0246 15.6058 23.0808 15.5291C23.1423 15.4451 23.2042 15.3615 23.2665 15.2783C23.3239 15.2016 23.3817 15.1252 23.4397 15.0492C23.5025 14.9672 23.5655 14.8853 23.6289 14.8041C23.688 14.7283 23.7478 14.6528 23.8077 14.5774C23.8716 14.4972 23.9357 14.4171 24.0004 14.3376C24.0616 14.2622 24.1232 14.1875 24.1852 14.1128C24.2501 14.0346 24.3151 13.9566 24.3807 13.879C24.4438 13.8045 24.5074 13.7304 24.5713 13.6566C24.6373 13.5802 24.7034 13.5039 24.77 13.4282C24.8349 13.3546 24.9005 13.2815 24.966 13.2085C25.0331 13.134 25.1001 13.0593 25.1679 12.9854C25.2205 12.928 25.2739 12.8713 25.3268 12.8144L34.6752 22.1627C34.6574 22.1829 34.6405 22.2041 34.6231 22.2244C34.5317 22.3296 34.4415 22.4361 34.3527 22.5439ZM27.2802 10.8977C27.3593 10.827 27.4391 10.7572 27.5189 10.6874C27.5879 10.627 27.6564 10.5661 27.7259 10.5064C27.8085 10.4353 27.892 10.3654 27.9754 10.2953C28.0436 10.2379 28.1113 10.1801 28.18 10.1233C28.266 10.0523 28.3529 9.98248 28.4395 9.91238C28.5068 9.85802 28.5737 9.80302 28.6413 9.7493C28.7327 9.67666 28.8252 9.60545 28.9175 9.53392C28.9816 9.48433 29.0452 9.43394 29.1095 9.38482C29.2095 9.30869 29.3106 9.23382 29.4115 9.15895C29.4695 9.11588 29.5269 9.07201 29.5853 9.02941C29.6991 8.94612 29.814 8.86442 29.9289 8.78288C29.9755 8.74982 30.0216 8.7158 30.0683 8.68306C30.2282 8.57068 30.3892 8.46005 30.5514 8.35085C30.5536 8.34942 30.5557 8.34783 30.5579 8.3464C30.724 8.23465 30.8912 8.1245 31.0594 8.01594C31.0761 8.00529 31.0929 7.99496 31.1096 7.98431C31.26 7.88782 31.411 7.79229 31.5631 7.69835C31.6078 7.67086 31.6531 7.64415 31.6979 7.61681C31.8223 7.54083 31.947 7.46501 32.0727 7.39078C32.1296 7.35725 32.1873 7.32466 32.2445 7.29144C32.359 7.22484 32.4734 7.15824 32.589 7.09307C32.6519 7.05746 32.7156 7.02313 32.7789 6.988C32.8894 6.92681 32.9997 6.86529 33.111 6.80537C33.1784 6.76913 33.2465 6.734 33.3143 6.69808C33.4222 6.64101 33.5301 6.58379 33.6388 6.528C33.7097 6.4916 33.7813 6.45647 33.8523 6.42071C33.959 6.36714 34.0655 6.31325 34.1728 6.26096C34.2457 6.22536 34.3191 6.19086 34.3924 6.15574C34.4989 6.10487 34.6053 6.05385 34.7124 6.0041C34.7874 5.96929 34.8629 5.93559 34.9383 5.90141C35.0443 5.85325 35.1501 5.80525 35.2568 5.75836C35.334 5.72434 35.4118 5.69144 35.4892 5.65806C35.595 5.6126 35.7007 5.56714 35.8071 5.52279C35.8858 5.49005 35.9648 5.45826 36.0438 5.42615C36.1498 5.38307 36.256 5.34 36.3626 5.29819C36.4429 5.26672 36.5235 5.23604 36.6041 5.20521C36.7099 5.16468 36.8159 5.12414 36.9224 5.08472C37.0046 5.05436 37.0871 5.0248 37.1695 4.99507C37.2753 4.95693 37.3812 4.91894 37.4874 4.88206C37.5708 4.85313 37.6546 4.82484 37.7383 4.79655C37.8445 4.76062 37.9507 4.72518 38.0574 4.69052C38.1419 4.66303 38.2266 4.63616 38.3115 4.60946C38.418 4.57592 38.5247 4.5427 38.6316 4.51027C38.7175 4.48421 38.8038 4.45877 38.8899 4.4335C38.9964 4.40219 39.1031 4.37151 39.2099 4.34131C39.2972 4.31683 39.3848 4.29283 39.4723 4.26899C39.579 4.24006 39.6858 4.21161 39.7929 4.18379C39.8813 4.1609 39.9699 4.13849 40.0585 4.11623C40.1655 4.08953 40.2727 4.0633 40.3799 4.03787C40.4696 4.01657 40.5592 3.99559 40.6492 3.97509C40.7562 3.95061 40.8633 3.92692 40.9706 3.90372C41.0612 3.88401 41.1521 3.86477 41.243 3.84602C41.3503 3.82376 41.458 3.80231 41.5656 3.78132C41.6573 3.76336 41.749 3.74572 41.8409 3.72871C41.9482 3.70884 42.0558 3.68961 42.1635 3.67085C42.2565 3.65464 42.3495 3.63859 42.4426 3.62333C42.5498 3.60568 42.6572 3.58899 42.7647 3.57246C42.8589 3.558 42.9532 3.54369 43.0476 3.53002C43.1548 3.5146 43.262 3.5003 43.3693 3.48599C43.4647 3.47344 43.5601 3.46072 43.6556 3.44896C43.7626 3.43577 43.8697 3.42384 43.977 3.41176C44.0737 3.40095 44.1703 3.39015 44.2671 3.38029C44.3737 3.36948 44.4807 3.35963 44.5877 3.34993C44.6853 3.34103 44.7829 3.33197 44.8808 3.32418C44.9875 3.3156 45.0944 3.30813 45.2012 3.30066C45.3001 3.29366 45.399 3.28651 45.498 3.28063C45.6039 3.27427 45.7102 3.26918 45.8164 3.26394C45.9168 3.25901 46.0171 3.25361 46.1178 3.24963C46.1421 3.24868 46.1664 3.2482 46.1907 3.24741V16.4726C46.129 16.4767 46.0678 16.4836 46.0062 16.4883C45.9718 16.491 45.9378 16.4942 45.9035 16.4971C45.7207 16.5123 45.5387 16.5301 45.3573 16.5513C45.3195 16.5557 45.2817 16.5605 45.2438 16.5653C45.0663 16.5872 44.8895 16.6117 44.7136 16.639C44.6739 16.6452 44.6344 16.6517 44.5948 16.6581C44.4208 16.6866 44.2475 16.7176 44.0751 16.7512C44.0352 16.759 43.9953 16.767 43.9554 16.7751C43.7834 16.8101 43.6124 16.8477 43.4421 16.8879C43.4032 16.8972 43.3643 16.9062 43.3255 16.9156C43.1541 16.9574 42.9837 17.0021 42.8143 17.0491C42.7779 17.0593 42.7415 17.069 42.7051 17.0793C42.5326 17.1284 42.3616 17.1806 42.1912 17.2351C42.1589 17.2454 42.1263 17.2553 42.0941 17.2659C41.9186 17.3233 41.7447 17.3837 41.5716 17.4467C41.5455 17.4562 41.5191 17.4651 41.4931 17.4748C41.3112 17.5419 41.131 17.6123 40.9519 17.6856C40.9355 17.6922 40.9188 17.6986 40.9024 17.7053C40.7077 17.7857 40.5146 17.8693 40.3234 17.9569L40.3227 17.9572C39.348 18.4032 38.4201 18.9405 37.5509 19.5605C37.5486 19.5623 37.5463 19.564 37.5439 19.5658C37.3769 19.6852 37.2121 19.8077 37.0494 19.9331C37.0258 19.9514 37.0027 19.9705 36.979 19.9889C36.8384 20.0986 36.699 20.2102 36.5616 20.3243C36.527 20.3531 36.4931 20.383 36.4588 20.4121C36.3887 20.4713 36.3181 20.5303 36.249 20.5909L26.9015 11.2434C26.9578 11.1913 27.0144 11.1396 27.0711 11.088C27.1406 11.0247 27.2096 10.961 27.2797 10.8984L27.2802 10.8977ZM43.0063 66.8847H3.25599C3.83457 56.428 12.5214 48.0981 23.119 48.0918C23.1231 48.0918 23.1272 48.0921 23.1314 48.0921C23.1355 48.0921 23.1395 48.0918 23.1436 48.0918C33.7409 48.0984 42.4276 56.4281 43.0061 66.8847H43.0063ZM23.1436 45.8665C23.1395 45.8665 23.1354 45.8665 23.1312 45.8665C23.1272 45.8665 23.1233 45.8665 23.1191 45.8665C17.2626 45.8598 12.4999 41.0933 12.4999 35.2352C12.4999 29.377 17.2693 24.6036 23.1315 24.6036C28.9938 24.6036 33.7631 29.3729 33.7631 35.2352C33.7631 41.0975 29.0003 45.8598 23.1436 45.8665ZM49.9141 31.898C49.8002 32.2404 49.8593 32.6168 50.0729 32.9078C50.7941 33.8903 50.9451 35.1471 50.4767 36.2698C50.1232 37.1173 49.4607 37.7765 48.6114 38.1259C47.7623 38.4751 46.8276 38.4729 45.9801 38.1192C44.2305 37.3891 43.401 35.372 44.1309 33.6226C44.5993 32.4998 45.5988 31.7228 46.8043 31.5443C47.1562 31.4922 47.462 31.2749 47.627 30.9596L53.8533 19.063C53.8533 19.063 53.8536 19.0626 53.8537 19.0622L54.7664 17.3184L54.1063 19.3021C54.1054 19.3048 54.1046 19.3075 54.1036 19.3102L49.9143 31.8982L49.9141 31.898ZM57.7767 10.1966C56.9088 9.8345 55.898 10.3242 55.3798 11.3474L52.3154 17.2027C51.0505 16.8069 49.7458 16.5648 48.4165 16.4779V3.24804C55.8481 3.52049 62.5978 6.50829 67.7 11.2484L58.3541 20.5942C57.7711 20.0821 57.1499 19.6081 56.4931 19.177L58.6374 12.7341C59.0196 11.6507 58.6514 10.5617 57.7767 10.1966ZM64.0471 32.1054C63.799 28.4062 62.3214 24.9174 59.9246 22.1707L69.2728 12.8225C74.013 17.9248 77.0037 24.6737 77.276 32.1054H64.047H64.0471Z" fill="#665DEC"/>
<path d="M70.2049 10.5805C70.1691 10.5302 70.13 10.4817 70.085 10.4368C70.04 10.3916 69.9914 10.3524 69.9412 10.3168C64.1182 4.56018 56.1194 1 47.3039 1C38.5964 1 30.5107 4.51886 24.6147 10.3547C24.5829 10.3802 24.5521 10.4074 24.5225 10.4368C24.4944 10.4649 24.4682 10.4943 24.4437 10.5247C20.6982 14.2877 17.8566 18.995 16.3286 24.3327C12.6966 26.6073 10.2746 30.6426 10.2746 35.235C10.2746 40.2051 13.1113 44.5222 17.2486 46.6612C7.8918 49.244 1 57.8304 1 67.9972C1 68.6117 1.49815 69.1099 2.11266 69.1099H44.1496C44.7641 69.1099 45.2623 68.6117 45.2623 67.9972C45.2623 57.8305 38.3706 49.2443 29.014 46.6614C33.1516 44.5224 35.9883 40.2053 35.9883 35.235C35.9883 32.5375 35.1514 30.0324 33.7261 27.9625C35.8864 22.3768 41.2729 18.6625 47.3037 18.6625C48.6554 18.6625 49.9828 18.8465 51.2652 19.2088L45.9002 29.4599C44.1952 29.8998 42.761 31.126 42.0771 32.7656C40.8749 35.6475 42.2413 38.9702 45.1232 40.1727C45.8258 40.4658 46.5646 40.6125 47.3035 40.6125C48.033 40.6125 48.7627 40.4696 49.4576 40.1838C50.8567 39.6084 51.9479 38.5228 52.5303 37.1267C53.2132 35.4901 53.0773 33.612 52.1948 32.0921L55.7623 21.3729C59.5534 24.0891 61.859 28.5106 61.859 33.2181C61.859 33.8326 62.3571 34.3308 62.9716 34.3308H78.4091C79.0236 34.3308 79.5218 33.8326 79.5218 33.2181C79.5218 24.4025 75.9616 16.4036 70.205 10.5806L70.2049 10.5805ZM34.3527 22.5439C34.3061 22.6003 34.2599 22.6571 34.2141 22.7141C34.1281 22.8213 34.0435 22.9295 33.9601 23.0387C33.9145 23.0983 33.8692 23.1582 33.8243 23.2185C33.7433 23.3278 33.6638 23.4385 33.5851 23.5499C33.5411 23.6124 33.4971 23.6747 33.4538 23.7378C33.3772 23.8497 33.3023 23.9632 33.2284 24.0771C33.1863 24.1418 33.144 24.2064 33.1027 24.2719C33.0302 24.3868 32.96 24.5034 32.8902 24.6204C32.8504 24.687 32.8102 24.7532 32.7714 24.8202C32.7026 24.9393 32.6363 25.0601 32.5704 25.1811C32.5338 25.2481 32.4965 25.3146 32.4607 25.3821C32.3947 25.5071 32.3316 25.6337 32.2688 25.7608C32.2363 25.8266 32.2026 25.8916 32.1708 25.9579C32.1549 25.9909 32.139 26.024 32.1232 26.0572C29.803 23.7836 26.6289 22.3781 23.1315 22.3781C21.7175 22.3781 20.3577 22.611 19.0842 23.0346C19.0899 23.0185 19.0953 23.0023 19.1012 22.9864C19.1406 22.8775 19.1818 22.7695 19.2225 22.6612C19.2538 22.5778 19.2845 22.494 19.3166 22.411C19.3576 22.3048 19.4 22.1996 19.4421 22.0941C19.4758 22.0098 19.5089 21.9253 19.5432 21.8415C19.586 21.7372 19.6302 21.6337 19.674 21.5301C19.7095 21.4463 19.7445 21.3624 19.7805 21.2791C19.825 21.1766 19.871 21.0749 19.9164 20.9728C19.954 20.8891 19.991 20.8051 20.0291 20.7218C20.0752 20.6214 20.1226 20.5216 20.1696 20.4217C20.2091 20.3385 20.248 20.2548 20.2881 20.172C20.3361 20.0727 20.3852 19.9743 20.4343 19.8756C20.4753 19.7931 20.5162 19.7104 20.5578 19.6286C20.6074 19.531 20.6583 19.434 20.709 19.3371C20.7519 19.255 20.7946 19.173 20.8382 19.0915C20.8894 18.9956 20.9417 18.9006 20.9938 18.8055C21.0386 18.724 21.0833 18.6423 21.1288 18.5612C21.1817 18.467 21.2354 18.3733 21.2893 18.2799C21.3357 18.1993 21.3821 18.1185 21.4293 18.0384C21.4839 17.9456 21.5393 17.8534 21.5948 17.7612C21.643 17.6814 21.6911 17.6015 21.7401 17.5222C21.796 17.4312 21.8528 17.3408 21.9097 17.2505C21.9599 17.1709 22.0101 17.0914 22.061 17.0124C22.1184 16.9234 22.1762 16.8349 22.2344 16.7466C22.2864 16.6678 22.3385 16.5893 22.3911 16.5109C22.45 16.4235 22.5094 16.3364 22.5692 16.2496C22.6229 16.1716 22.6769 16.0937 22.7313 16.0161C22.7915 15.9304 22.8521 15.8452 22.9131 15.7602C22.9686 15.6828 23.0246 15.6058 23.0808 15.5291C23.1423 15.4451 23.2042 15.3615 23.2665 15.2783C23.3239 15.2016 23.3817 15.1252 23.4397 15.0492C23.5025 14.9672 23.5655 14.8853 23.6289 14.8041C23.688 14.7283 23.7478 14.6528 23.8077 14.5774C23.8716 14.4972 23.9357 14.4171 24.0004 14.3376C24.0616 14.2622 24.1232 14.1875 24.1852 14.1128C24.2501 14.0346 24.3151 13.9566 24.3807 13.879C24.4438 13.8045 24.5074 13.7304 24.5713 13.6566C24.6373 13.5802 24.7034 13.5039 24.77 13.4282C24.8349 13.3546 24.9005 13.2815 24.966 13.2085C25.0331 13.134 25.1001 13.0593 25.1679 12.9854C25.2205 12.928 25.2739 12.8713 25.3268 12.8144L34.6752 22.1627C34.6574 22.1829 34.6405 22.2041 34.6231 22.2244C34.5317 22.3296 34.4415 22.4361 34.3527 22.5439ZM27.2802 10.8977C27.3593 10.827 27.4391 10.7572 27.5189 10.6874C27.5879 10.627 27.6564 10.5661 27.7259 10.5064C27.8085 10.4353 27.892 10.3654 27.9754 10.2953C28.0436 10.2379 28.1113 10.1801 28.18 10.1233C28.266 10.0523 28.3529 9.98248 28.4395 9.91238C28.5068 9.85802 28.5737 9.80302 28.6413 9.7493C28.7327 9.67666 28.8252 9.60545 28.9175 9.53392C28.9816 9.48433 29.0452 9.43394 29.1095 9.38482C29.2095 9.30869 29.3106 9.23382 29.4115 9.15895C29.4695 9.11588 29.5269 9.07201 29.5853 9.02941C29.6991 8.94612 29.814 8.86442 29.9289 8.78288C29.9755 8.74982 30.0216 8.7158 30.0683 8.68306C30.2282 8.57068 30.3892 8.46005 30.5514 8.35085C30.5536 8.34942 30.5557 8.34783 30.5579 8.3464C30.724 8.23465 30.8912 8.1245 31.0594 8.01594C31.0761 8.00529 31.0929 7.99496 31.1096 7.98431C31.26 7.88782 31.411 7.79229 31.5631 7.69835C31.6078 7.67086 31.6531 7.64415 31.6979 7.61681C31.8223 7.54083 31.947 7.46501 32.0727 7.39078C32.1296 7.35725 32.1873 7.32466 32.2445 7.29144C32.359 7.22484 32.4734 7.15824 32.589 7.09307C32.6519 7.05746 32.7156 7.02313 32.7789 6.988C32.8894 6.92681 32.9997 6.86529 33.111 6.80537C33.1784 6.76913 33.2465 6.734 33.3143 6.69808C33.4222 6.64101 33.5301 6.58379 33.6388 6.528C33.7097 6.4916 33.7813 6.45647 33.8523 6.42071C33.959 6.36714 34.0655 6.31325 34.1728 6.26096C34.2457 6.22536 34.3191 6.19086 34.3924 6.15574C34.4989 6.10487 34.6053 6.05385 34.7124 6.0041C34.7874 5.96929 34.8629 5.93559 34.9383 5.90141C35.0443 5.85325 35.1501 5.80525 35.2568 5.75836C35.334 5.72434 35.4118 5.69144 35.4892 5.65806C35.595 5.6126 35.7007 5.56714 35.8071 5.52279C35.8858 5.49005 35.9648 5.45826 36.0438 5.42615C36.1498 5.38307 36.256 5.34 36.3626 5.29819C36.4429 5.26672 36.5235 5.23604 36.6041 5.20521C36.7099 5.16468 36.8159 5.12414 36.9224 5.08472C37.0046 5.05436 37.0871 5.0248 37.1695 4.99507C37.2753 4.95693 37.3812 4.91894 37.4874 4.88206C37.5708 4.85313 37.6546 4.82484 37.7383 4.79655C37.8445 4.76062 37.9507 4.72518 38.0574 4.69052C38.1419 4.66303 38.2266 4.63616 38.3115 4.60946C38.418 4.57592 38.5247 4.5427 38.6316 4.51027C38.7175 4.48421 38.8038 4.45877 38.8899 4.4335C38.9964 4.40219 39.1031 4.37151 39.2099 4.34131C39.2972 4.31683 39.3848 4.29283 39.4723 4.26899C39.579 4.24006 39.6858 4.21161 39.7929 4.18379C39.8813 4.1609 39.9699 4.13849 40.0585 4.11623C40.1655 4.08953 40.2727 4.0633 40.3799 4.03787C40.4696 4.01657 40.5592 3.99559 40.6492 3.97509C40.7562 3.95061 40.8633 3.92692 40.9706 3.90372C41.0612 3.88401 41.1521 3.86477 41.243 3.84602C41.3503 3.82376 41.458 3.80231 41.5656 3.78132C41.6573 3.76336 41.749 3.74572 41.8409 3.72871C41.9482 3.70884 42.0558 3.68961 42.1635 3.67085C42.2565 3.65464 42.3495 3.63859 42.4426 3.62333C42.5498 3.60568 42.6572 3.58899 42.7647 3.57246C42.8589 3.558 42.9532 3.54369 43.0476 3.53002C43.1548 3.5146 43.262 3.5003 43.3693 3.48599C43.4647 3.47344 43.5601 3.46072 43.6556 3.44896C43.7626 3.43577 43.8697 3.42384 43.977 3.41176C44.0737 3.40095 44.1703 3.39015 44.2671 3.38029C44.3737 3.36948 44.4807 3.35963 44.5877 3.34993C44.6853 3.34103 44.7829 3.33197 44.8808 3.32418C44.9875 3.3156 45.0944 3.30813 45.2012 3.30066C45.3001 3.29366 45.399 3.28651 45.498 3.28063C45.6039 3.27427 45.7102 3.26918 45.8164 3.26394C45.9168 3.25901 46.0171 3.25361 46.1178 3.24963C46.1421 3.24868 46.1664 3.2482 46.1907 3.24741V16.4726C46.129 16.4767 46.0678 16.4836 46.0062 16.4883C45.9718 16.491 45.9378 16.4942 45.9035 16.4971C45.7207 16.5123 45.5387 16.5301 45.3573 16.5513C45.3195 16.5557 45.2817 16.5605 45.2438 16.5653C45.0663 16.5872 44.8895 16.6117 44.7136 16.639C44.6739 16.6452 44.6344 16.6517 44.5948 16.6581C44.4208 16.6866 44.2475 16.7176 44.0751 16.7512C44.0352 16.759 43.9953 16.767 43.9554 16.7751C43.7834 16.8101 43.6124 16.8477 43.4421 16.8879C43.4032 16.8972 43.3643 16.9062 43.3255 16.9156C43.1541 16.9574 42.9837 17.0021 42.8143 17.0491C42.7779 17.0593 42.7415 17.069 42.7051 17.0793C42.5326 17.1284 42.3616 17.1806 42.1912 17.2351C42.1589 17.2454 42.1263 17.2553 42.0941 17.2659C41.9186 17.3233 41.7447 17.3837 41.5716 17.4467C41.5455 17.4562 41.5191 17.4651 41.4931 17.4748C41.3112 17.5419 41.131 17.6123 40.9519 17.6856C40.9355 17.6922 40.9188 17.6986 40.9024 17.7053C40.7077 17.7857 40.5146 17.8693 40.3234 17.9569L40.3227 17.9572C39.348 18.4032 38.4201 18.9405 37.5509 19.5605C37.5486 19.5623 37.5463 19.564 37.5439 19.5658C37.3769 19.6852 37.2121 19.8077 37.0494 19.9331C37.0258 19.9514 37.0027 19.9705 36.979 19.9889C36.8384 20.0986 36.699 20.2102 36.5616 20.3243C36.527 20.3531 36.4931 20.383 36.4588 20.4121C36.3887 20.4713 36.3181 20.5303 36.249 20.5909L26.9015 11.2434C26.9578 11.1913 27.0144 11.1396 27.0711 11.088C27.1406 11.0247 27.2096 10.961 27.2797 10.8984L27.2802 10.8977ZM43.0063 66.8847H3.25599C3.83457 56.428 12.5214 48.0981 23.119 48.0918C23.1231 48.0918 23.1272 48.0921 23.1314 48.0921C23.1355 48.0921 23.1395 48.0918 23.1436 48.0918C33.7409 48.0984 42.4276 56.4281 43.0061 66.8847H43.0063ZM23.1436 45.8665C23.1395 45.8665 23.1354 45.8665 23.1312 45.8665C23.1272 45.8665 23.1233 45.8665 23.1191 45.8665C17.2626 45.8598 12.4999 41.0933 12.4999 35.2352C12.4999 29.377 17.2693 24.6036 23.1315 24.6036C28.9938 24.6036 33.7631 29.3729 33.7631 35.2352C33.7631 41.0975 29.0003 45.8598 23.1436 45.8665ZM49.9141 31.898C49.8002 32.2404 49.8593 32.6168 50.0729 32.9078C50.7941 33.8903 50.9451 35.1471 50.4767 36.2698C50.1232 37.1173 49.4607 37.7765 48.6114 38.1259C47.7623 38.4751 46.8276 38.4729 45.9801 38.1192C44.2305 37.3891 43.401 35.372 44.1309 33.6226C44.5993 32.4998 45.5988 31.7228 46.8043 31.5443C47.1562 31.4922 47.462 31.2749 47.627 30.9596L53.8533 19.063C53.8533 19.063 53.8536 19.0626 53.8537 19.0622L54.7664 17.3184L54.1063 19.3021C54.1054 19.3048 54.1046 19.3075 54.1036 19.3102L49.9143 31.8982L49.9141 31.898ZM57.7767 10.1966C56.9088 9.8345 55.898 10.3242 55.3798 11.3474L52.3154 17.2027C51.0505 16.8069 49.7458 16.5648 48.4165 16.4779V3.24804C55.8481 3.52049 62.5978 6.50829 67.7 11.2484L58.3541 20.5942C57.7711 20.0821 57.1499 19.6081 56.4931 19.177L58.6374 12.7341C59.0196 11.6507 58.6514 10.5617 57.7767 10.1966ZM64.0471 32.1054C63.799 28.4062 62.3214 24.9174 59.9246 22.1707L69.2728 12.8225C74.013 17.9248 77.0037 24.6737 77.276 32.1054H64.047H64.0471Z" stroke="#665DEC" stroke-width="0.6" mask="url(#path-1-outside-1_70_4039)"/>
</svg>
