<svg width="25" height="24" viewBox="0 0 25 24" fill="none" xmlns="http://www.w3.org/2000/svg">
<path d="M17.0396 11.0973C17.4229 11.0973 17.7336 10.7866 17.7336 10.4034C17.7336 10.0202 17.4229 9.70947 17.0396 9.70947C16.6564 9.70947 16.3457 10.0202 16.3457 10.4034C16.3457 10.7866 16.6564 11.0973 17.0396 11.0973Z" fill="white"/>
<path d="M18.6358 4.50504H17.7337V3.81112C17.7337 3.42786 17.4231 3.11719 17.0398 3.11719C16.6565 3.11719 16.3459 3.42786 16.3459 3.81112V4.50504H13.1885V3.81112C13.1885 3.42786 12.8778 3.11719 12.4946 3.11719C12.1113 3.11719 11.8006 3.42786 11.8006 3.81112V4.50504H8.67796V3.81112C8.67796 3.42786 8.36728 3.11719 7.98403 3.11719C7.60077 3.11719 7.2901 3.42786 7.2901 3.81112V4.50504H6.42269C4.89216 4.50504 3.64697 5.75023 3.64697 7.28076V18.106C3.64697 19.6366 4.89216 20.8818 6.42269 20.8818H11.7312C12.1145 20.8818 12.4252 20.5711 12.4252 20.1878C12.4252 19.8046 12.1145 19.4939 11.7312 19.4939H6.42269C5.65742 19.4939 5.03483 18.8713 5.03483 18.106V7.28076C5.03483 6.51549 5.65742 5.8929 6.42269 5.8929H7.2901V6.58683C7.2901 6.97009 7.60077 7.28076 7.98403 7.28076C8.36728 7.28076 8.67796 6.97009 8.67796 6.58683V5.8929H11.8006V6.58683C11.8006 6.97009 12.1113 7.28076 12.4946 7.28076C12.8778 7.28076 13.1885 6.97009 13.1885 6.58683V5.8929H16.3459V6.58683C16.3459 6.97009 16.6565 7.28076 17.0398 7.28076C17.4231 7.28076 17.7337 6.97009 17.7337 6.58683V5.8929H18.6358C19.4011 5.8929 20.0237 6.51549 20.0237 7.28076V11.2362C20.0237 11.6194 20.3344 11.9301 20.7176 11.9301C21.1009 11.9301 21.4115 11.6194 21.4115 11.2362V7.28076C21.4115 5.75023 20.1664 4.50504 18.6358 4.50504Z" fill="white"/>
<path d="M17.2132 12.4854C14.8982 12.4854 13.0149 14.3687 13.0149 16.6836C13.0149 18.9986 14.8982 20.8819 17.2132 20.8819C19.5281 20.8819 21.4114 18.9986 21.4114 16.6836C21.4114 14.3687 19.5281 12.4854 17.2132 12.4854ZM17.2132 19.494C15.6635 19.494 14.4027 18.2333 14.4027 16.6836C14.4027 15.1339 15.6635 13.8732 17.2132 13.8732C18.7628 13.8732 20.0236 15.1339 20.0236 16.6836C20.0236 18.2333 18.7628 19.494 17.2132 19.494Z" fill="white"/>
<path d="M18.2194 15.9894H17.9071V15.2608C17.9071 14.8776 17.5965 14.5669 17.2132 14.5669C16.83 14.5669 16.5193 14.8776 16.5193 15.2608V16.6834C16.5193 17.0666 16.83 17.3773 17.2132 17.3773H18.2194C18.6027 17.3773 18.9133 17.0666 18.9133 16.6834C18.9133 16.3001 18.6027 15.9894 18.2194 15.9894Z" fill="white"/>
<path d="M14.0211 11.0973C14.4043 11.0973 14.715 10.7866 14.715 10.4034C14.715 10.0202 14.4043 9.70947 14.0211 9.70947C13.6378 9.70947 13.3271 10.0202 13.3271 10.4034C13.3271 10.7866 13.6378 11.0973 14.0211 11.0973Z" fill="white"/>
<path d="M11.0025 14.1159C11.3858 14.1159 11.6965 13.8052 11.6965 13.422C11.6965 13.0387 11.3858 12.728 11.0025 12.728C10.6193 12.728 10.3086 13.0387 10.3086 13.422C10.3086 13.8052 10.6193 14.1159 11.0025 14.1159Z" fill="white"/>
<path d="M7.98397 11.0973C8.36721 11.0973 8.6779 10.7866 8.6779 10.4034C8.6779 10.0202 8.36721 9.70947 7.98397 9.70947C7.60072 9.70947 7.29004 10.0202 7.29004 10.4034C7.29004 10.7866 7.60072 11.0973 7.98397 11.0973Z" fill="white"/>
<path d="M7.98397 14.1159C8.36721 14.1159 8.6779 13.8052 8.6779 13.422C8.6779 13.0387 8.36721 12.728 7.98397 12.728C7.60072 12.728 7.29004 13.0387 7.29004 13.422C7.29004 13.8052 7.60072 14.1159 7.98397 14.1159Z" fill="white"/>
<path d="M7.98397 17.1344C8.36721 17.1344 8.6779 16.8238 8.6779 16.4405C8.6779 16.0573 8.36721 15.7466 7.98397 15.7466C7.60072 15.7466 7.29004 16.0573 7.29004 16.4405C7.29004 16.8238 7.60072 17.1344 7.98397 17.1344Z" fill="white"/>
<path d="M11.0025 17.1344C11.3858 17.1344 11.6965 16.8238 11.6965 16.4405C11.6965 16.0573 11.3858 15.7466 11.0025 15.7466C10.6193 15.7466 10.3086 16.0573 10.3086 16.4405C10.3086 16.8238 10.6193 17.1344 11.0025 17.1344Z" fill="white"/>
<path d="M11.0025 11.0973C11.3858 11.0973 11.6965 10.7866 11.6965 10.4034C11.6965 10.0202 11.3858 9.70947 11.0025 9.70947C10.6193 9.70947 10.3086 10.0202 10.3086 10.4034C10.3086 10.7866 10.6193 11.0973 11.0025 11.0973Z" fill="white"/>
</svg>
