<svg width="24" height="24" viewBox="0 0 24 24" fill="none" xmlns="http://www.w3.org/2000/svg">
<path d="M3.99976 20C3.44976 20 2.97892 19.8042 2.58726 19.4125C2.19559 19.0208 1.99976 18.55 1.99976 18V6C1.99976 5.45 2.19559 4.97917 2.58726 4.5875C2.97892 4.19583 3.44976 4 3.99976 4H19.9998C20.5498 4 21.0206 4.19583 21.4123 4.5875C21.8039 4.97917 21.9998 5.45 21.9998 6V18C21.9998 18.55 21.8039 19.0208 21.4123 19.4125C21.0206 19.8042 20.5498 20 19.9998 20H3.99976ZM11.9998 13L3.99976 8V18H19.9998V8L11.9998 13ZM11.9998 11L19.9998 6H3.99976L11.9998 11ZM3.99976 8V6V18V8Z" fill="#CBBDEF"/>
</svg>
