<svg width="24" height="24" viewBox="0 0 24 24" fill="none" xmlns="http://www.w3.org/2000/svg">
<path d="M16.5703 11.0859C16.9586 11.0859 17.2734 10.7711 17.2734 10.3828C17.2734 9.99449 16.9586 9.67969 16.5703 9.67969C16.182 9.67969 15.8672 9.99449 15.8672 10.3828C15.8672 10.7711 16.182 11.0859 16.5703 11.0859Z" fill="white"/>
<path d="M18.1875 4.40625H17.2734V3.70312C17.2734 3.31479 16.9586 3 16.5703 3C16.182 3 15.8672 3.31479 15.8672 3.70312V4.40625H12.668V3.70312C12.668 3.31479 12.3532 3 11.9648 3C11.5765 3 11.2617 3.31479 11.2617 3.70312V4.40625H8.09766V3.70312C8.09766 3.31479 7.78287 3 7.39453 3C7.0062 3 6.69141 3.31479 6.69141 3.70312V4.40625H5.8125C4.26169 4.40625 3 5.66794 3 7.21875V18.1875C3 19.7383 4.26169 21 5.8125 21H11.1914C11.5797 21 11.8945 20.6852 11.8945 20.2969C11.8945 19.9085 11.5797 19.5938 11.1914 19.5938H5.8125C5.03709 19.5938 4.40625 18.9629 4.40625 18.1875V7.21875C4.40625 6.44334 5.03709 5.8125 5.8125 5.8125H6.69141V6.51562C6.69141 6.90396 7.0062 7.21875 7.39453 7.21875C7.78287 7.21875 8.09766 6.90396 8.09766 6.51562V5.8125H11.2617V6.51562C11.2617 6.90396 11.5765 7.21875 11.9648 7.21875C12.3532 7.21875 12.668 6.90396 12.668 6.51562V5.8125H15.8672V6.51562C15.8672 6.90396 16.182 7.21875 16.5703 7.21875C16.9586 7.21875 17.2734 6.90396 17.2734 6.51562V5.8125H18.1875C18.9629 5.8125 19.5938 6.44334 19.5938 7.21875V11.2266C19.5938 11.6149 19.9085 11.9297 20.2969 11.9297C20.6852 11.9297 21 11.6149 21 11.2266V7.21875C21 5.66794 19.7383 4.40625 18.1875 4.40625Z" fill="white"/>
<path d="M16.7461 12.4922C14.4005 12.4922 12.4922 14.4005 12.4922 16.7461C12.4922 19.0917 14.4005 21 16.7461 21C19.0917 21 21 19.0917 21 16.7461C21 14.4005 19.0917 12.4922 16.7461 12.4922ZM16.7461 19.5938C15.1759 19.5938 13.8984 18.3163 13.8984 16.7461C13.8984 15.1759 15.1759 13.8984 16.7461 13.8984C18.3163 13.8984 19.5938 15.1759 19.5938 16.7461C19.5938 18.3163 18.3163 19.5938 16.7461 19.5938Z" fill="white"/>
<path d="M17.7656 16.043H17.4492V15.3047C17.4492 14.9164 17.1344 14.6016 16.7461 14.6016C16.3578 14.6016 16.043 14.9164 16.043 15.3047V16.7461C16.043 17.1344 16.3578 17.4492 16.7461 17.4492H17.7656C18.154 17.4492 18.4688 17.1344 18.4688 16.7461C18.4688 16.3578 18.154 16.043 17.7656 16.043Z" fill="white"/>
<path d="M13.5117 11.0859C13.9 11.0859 14.2148 10.7711 14.2148 10.3828C14.2148 9.99449 13.9 9.67969 13.5117 9.67969C13.1234 9.67969 12.8086 9.99449 12.8086 10.3828C12.8086 10.7711 13.1234 11.0859 13.5117 11.0859Z" fill="white"/>
<path d="M10.4531 14.1445C10.8415 14.1445 11.1562 13.8297 11.1562 13.4414C11.1562 13.0531 10.8415 12.7383 10.4531 12.7383C10.0648 12.7383 9.75 13.0531 9.75 13.4414C9.75 13.8297 10.0648 14.1445 10.4531 14.1445Z" fill="white"/>
<path d="M7.39453 11.0859C7.78286 11.0859 8.09766 10.7711 8.09766 10.3828C8.09766 9.99449 7.78286 9.67969 7.39453 9.67969C7.00621 9.67969 6.69141 9.99449 6.69141 10.3828C6.69141 10.7711 7.00621 11.0859 7.39453 11.0859Z" fill="white"/>
<path d="M7.39453 14.1445C7.78286 14.1445 8.09766 13.8297 8.09766 13.4414C8.09766 13.0531 7.78286 12.7383 7.39453 12.7383C7.00621 12.7383 6.69141 13.0531 6.69141 13.4414C6.69141 13.8297 7.00621 14.1445 7.39453 14.1445Z" fill="white"/>
<path d="M7.39453 17.2031C7.78286 17.2031 8.09766 16.8883 8.09766 16.5C8.09766 16.1117 7.78286 15.7969 7.39453 15.7969C7.00621 15.7969 6.69141 16.1117 6.69141 16.5C6.69141 16.8883 7.00621 17.2031 7.39453 17.2031Z" fill="white"/>
<path d="M10.4531 17.2031C10.8415 17.2031 11.1562 16.8883 11.1562 16.5C11.1562 16.1117 10.8415 15.7969 10.4531 15.7969C10.0648 15.7969 9.75 16.1117 9.75 16.5C9.75 16.8883 10.0648 17.2031 10.4531 17.2031Z" fill="white"/>
<path d="M10.4531 11.0859C10.8415 11.0859 11.1562 10.7711 11.1562 10.3828C11.1562 9.99449 10.8415 9.67969 10.4531 9.67969C10.0648 9.67969 9.75 9.99449 9.75 10.3828C9.75 10.7711 10.0648 11.0859 10.4531 11.0859Z" fill="white"/>
</svg>
