<svg width="24" height="24" viewBox="0 0 24 24" fill="none" xmlns="http://www.w3.org/2000/svg">
<path d="M20.8183 4H3.18183C1.97871 4 1 5.0193 1 6.27242V16.7276C1 17.9807 1.97871 19 3.18183 19H20.8182C22.0213 19 23 17.9807 23 16.7276V6.27242C23 5.0193 22.0214 4 20.8183 4ZM21.5455 6.27242V16.7276C21.5455 16.8471 21.5132 16.9562 21.4656 17.0568L16.3239 11.7012L21.5441 6.26425C21.5441 6.26727 21.5455 6.26945 21.5455 6.27242ZM2.45455 16.7275V6.27242C2.45455 6.26945 2.45602 6.26731 2.45602 6.26429L7.6762 11.7012L2.53413 17.0567C2.48687 16.9562 2.45455 16.8471 2.45455 16.7275ZM12.2245 13.8287C12.1045 13.9536 11.8956 13.9536 11.7756 13.8287L3.79369 5.51495H20.2068L12.2245 13.8287ZM8.70461 12.7724L10.7472 14.8998C11.0821 15.2485 11.527 15.4405 12 15.4405C12.473 15.4405 12.918 15.2485 13.2529 14.8998L15.2956 12.7724L19.82 17.4851H4.17975L8.70461 12.7724Z" fill="white"/>
</svg>
